<svg width="43" height="40" viewBox="0 0 43 40" fill="none" xmlns="http://www.w3.org/2000/svg">
<path d="M15.9642 39.357C14.6215 39.357 13.4139 39.0051 12.3498 38.3042C11.2829 37.6033 10.4582 36.6377 9.87264 35.4104C9.40536 36.0241 8.81422 36.4998 8.0964 36.8348C7.3814 37.1698 6.64388 37.3387 5.88384 37.3387C4.39473 37.3387 3.14488 36.8263 2.13712 35.8045C1.12937 34.7827 0.625488 33.5413 0.625488 32.0803C0.625488 30.8248 1.03366 29.6932 1.85281 28.6827C2.67197 27.6749 3.70787 27.0978 4.96335 26.9515C4.55518 26.3659 4.2399 25.7466 4.02033 25.0879C3.80077 24.4292 3.69098 23.7368 3.69098 23.0049C3.69098 21.8367 3.98937 20.7416 4.58896 19.717C5.18855 18.6952 6.0274 17.8619 7.10835 17.2201C7.25473 17.7465 7.45178 18.3095 7.69949 18.9063C7.94721 19.5059 8.23152 20.0238 8.55524 20.463C8.14707 20.7839 7.82617 21.1723 7.58971 21.6255C7.35607 22.0788 7.23784 22.5545 7.23784 23.0499C7.23784 24.6854 7.91061 25.6932 9.25335 26.0732C10.5961 26.4532 11.8685 26.76 13.0648 26.9937L13.898 28.3955C13.5771 29.3301 13.2985 30.1267 13.0648 30.7826C12.8312 31.4413 12.7129 32.0325 12.7129 32.5589C12.7129 33.4343 13.0282 34.2028 13.656 34.8587C14.2837 35.5174 15.0522 35.8439 15.9558 35.8439C17.0649 35.8439 17.9854 35.3485 18.7173 34.3548C19.4463 33.3611 20.0459 32.1929 20.5132 30.8502C20.9805 29.5074 21.338 28.1478 21.5857 26.7741C21.8334 25.4004 22.0305 24.3504 22.1769 23.6185L25.5942 24.539C25.3324 25.8536 25.0087 27.3596 24.6287 29.0542C24.2487 30.7488 23.7166 32.3618 23.0298 33.896C22.3429 35.4301 21.4365 36.7222 20.3133 37.775C19.1874 38.8278 17.7348 39.3514 15.953 39.3514L15.9642 39.357ZM5.88384 33.834C6.37927 33.834 6.79589 33.6651 7.13369 33.3302C7.46867 32.9952 7.63756 32.5786 7.63756 32.0803C7.63756 31.5821 7.46867 31.1683 7.13369 30.8305C6.7987 30.4955 6.38209 30.3266 5.88384 30.3266C5.38559 30.3266 4.97179 30.4955 4.634 30.8305C4.29902 31.1655 4.13012 31.5821 4.13012 32.0803C4.13012 32.5786 4.29902 32.9924 4.634 33.3302C4.96898 33.6651 5.38559 33.834 5.88384 33.834ZM18.3288 26.9092C16.9861 25.7101 15.7644 24.5925 14.6693 23.5566C13.5743 22.5207 12.6313 21.5101 11.8431 20.5333C11.0549 19.5537 10.4469 18.5769 10.0247 17.5973C9.60241 16.6177 9.38847 15.6043 9.38847 14.5515C9.38847 12.6514 10.0387 11.0525 11.3392 9.75202C12.6398 8.45151 14.2387 7.80125 16.1388 7.80125C16.257 7.80125 16.3583 7.8097 16.4456 7.82377C16.5329 7.83785 16.6342 7.84629 16.7524 7.84629C16.6342 7.55354 16.5469 7.26078 16.4906 6.97084C16.4315 6.67808 16.4034 6.37125 16.4034 6.05034C16.4034 4.58938 16.9157 3.34798 17.9375 2.32615C18.9593 1.30432 20.2007 0.791992 21.6617 0.791992C23.1227 0.791992 24.3641 1.30432 25.3859 2.32615C26.4077 3.34798 26.9201 4.58938 26.9201 6.05034C26.9201 6.37125 26.8919 6.67245 26.8328 6.94832C26.7737 7.227 26.6864 7.51131 26.571 7.80407H27.1847C28.9384 7.80407 30.4275 8.36706 31.6548 9.49023C32.8822 10.6162 33.6112 12.0096 33.8449 13.6761C33.3185 13.5888 32.7273 13.5438 32.0686 13.5438C31.4099 13.5438 30.8047 13.5719 30.2502 13.631C30.0447 12.9583 29.6731 12.4037 29.1326 11.9646C28.5922 11.5254 27.9419 11.3059 27.1819 11.3059C26.16 11.3059 25.3634 11.6043 24.7948 12.2039C24.2261 12.8034 23.4436 13.6733 22.4499 14.8105H20.8285C19.8067 13.6113 19.01 12.7274 18.4414 12.1588C17.8728 11.5902 17.1043 11.3031 16.1416 11.3031C15.1789 11.3031 14.4329 11.6099 13.8192 12.2236C13.2056 12.8372 12.8987 13.6113 12.8987 14.5459C12.8987 15.2187 13.0873 15.9112 13.4674 16.629C13.8474 17.344 14.3794 18.104 15.0663 18.9091C15.7531 19.7114 16.5863 20.5671 17.5631 21.4735C18.5427 22.38 19.6293 23.3567 20.8285 24.4095L18.3316 26.9064L18.3288 26.9092ZM21.6589 7.80125C22.1543 7.80125 22.5709 7.63236 22.9087 7.29737C23.2437 6.96239 23.4126 6.54578 23.4126 6.04753C23.4126 5.54928 23.2437 5.13548 22.9087 4.79769C22.5738 4.46271 22.1571 4.29381 21.6589 4.29381C21.1607 4.29381 20.7469 4.46271 20.4091 4.79769C20.0741 5.13267 19.9052 5.54928 19.9052 6.04753C19.9052 6.54578 20.0741 6.95958 20.4091 7.29737C20.744 7.63236 21.1607 7.80125 21.6589 7.80125ZM27.3113 39.3542C26.6695 39.3542 26.0334 39.2669 25.4056 39.0924C24.7779 38.9179 24.1698 38.6392 23.5872 38.2592C23.9081 37.851 24.229 37.3668 24.5527 36.8123C24.8736 36.2577 25.1663 35.7454 25.4281 35.2781C25.749 35.4836 26.0699 35.63 26.3937 35.7173C26.7146 35.8045 27.0355 35.8496 27.3592 35.8496C28.2938 35.8496 29.0763 35.5202 29.7041 34.8643C30.3318 34.2056 30.6471 33.4259 30.6471 32.5195C30.6471 31.9649 30.5289 31.3653 30.2952 30.7235C30.0616 30.0817 29.7829 29.2907 29.462 28.3561L30.2952 26.9543C31.5225 26.7206 32.8005 26.4138 34.1292 26.0338C35.4579 25.6538 36.1222 24.646 36.1222 23.0105C36.1222 21.8423 35.6915 20.995 34.8301 20.4686C33.9687 19.9422 33.0257 19.6804 32.0039 19.6804C30.7766 19.6804 29.3438 19.914 27.7083 20.3813C26.0728 20.8486 24.1586 21.4482 21.9685 22.1773L21.0481 18.7599C23.3282 18.0308 25.3578 17.4172 27.1396 16.9189C28.9215 16.4235 30.557 16.173 32.0489 16.173C34.0644 16.173 35.8322 16.7725 37.3523 17.9689C38.8724 19.1681 39.6324 20.8458 39.6324 23.0077C39.6324 23.7368 39.5227 24.4321 39.3031 25.0908C39.0835 25.7495 38.7711 26.3688 38.3601 26.9543C39.6156 27.1006 40.6543 27.6777 41.4706 28.6855C42.2898 29.6932 42.6979 30.8248 42.6979 32.0831C42.6979 33.5441 42.1941 34.7855 41.1863 35.8073C40.1785 36.8292 38.9287 37.3415 37.4396 37.3415C36.6795 37.3415 35.942 37.1726 35.227 36.8376C34.512 36.5026 33.9209 36.0269 33.4508 35.4132C32.8653 36.6406 32.0405 37.6033 30.9736 38.307C29.9067 39.0079 28.6879 39.3598 27.3142 39.3598L27.3113 39.3542ZM37.479 33.8312C37.9744 33.8312 38.3854 33.6623 38.7063 33.3273C39.0272 32.9924 39.1877 32.5758 39.1877 32.0775C39.1877 31.5793 39.0188 31.157 38.6838 30.808C38.3488 30.4561 37.9322 30.2816 37.434 30.2816C36.9357 30.2816 36.5219 30.4505 36.1841 30.7854C35.8491 31.1204 35.6802 31.537 35.6802 32.0353C35.6802 32.5335 35.8548 32.9558 36.2066 33.3048C36.5585 33.6539 36.9808 33.8312 37.4762 33.8312H37.479Z" fill="#00FFF0"/>
</svg>
