<svg width="43" height="39" viewBox="0 0 43 39" fill="none" xmlns="http://www.w3.org/2000/svg">
<path d="M22.3612 22.8951C22.2149 23.6242 22.0178 24.677 21.7701 26.0478C21.5224 27.4215 21.1649 28.7812 20.6976 30.1239C20.2275 31.4695 19.6307 32.6377 18.8988 33.6314C18.1698 34.625 17.2493 35.1205 16.1373 35.1205C15.2337 35.1205 14.4653 34.7911 13.8375 34.1352C13.2098 33.4765 12.8945 32.7109 12.8945 31.8326C12.8945 31.309 13.0127 30.7151 13.2464 30.0592C13.48 29.4005 13.7559 28.6066 14.0796 27.6693L13.2464 26.2674C12.0472 26.0338 10.7776 25.7269 9.43209 25.3469C8.08935 24.9669 7.41657 23.9591 7.41657 22.3236C7.41657 21.8282 7.5348 21.3525 7.76844 20.8993C8.00209 20.4461 8.32299 20.0604 8.73116 19.7395C8.41026 19.3004 8.12594 18.7824 7.87823 18.1828C7.63051 17.5832 7.43065 17.0202 7.28708 16.4967C6.20614 17.1385 5.36446 17.9717 4.76487 18.9935C4.1681 20.0154 3.8669 21.1104 3.8669 22.2814C3.8669 23.0105 3.97668 23.7058 4.19625 24.3617C4.41582 25.0204 4.72828 25.6397 5.13926 26.2252C3.88097 26.3716 2.84507 26.9486 2.02591 27.9564C1.20957 28.9641 0.798584 30.0958 0.798584 31.3512C0.798584 32.8122 1.30246 34.0536 2.31304 35.0783C3.32079 36.1001 4.56783 36.6096 6.05976 36.6096C6.81698 36.6096 7.55732 36.4435 8.27232 36.1057C8.98732 35.7707 9.57847 35.295 10.0458 34.6813C10.6313 35.9087 11.4561 36.8742 12.5229 37.5751C13.5898 38.2761 14.7946 38.6279 16.1373 38.6279C17.9192 38.6279 19.3746 38.1015 20.4977 37.0487C21.6237 35.9959 22.5301 34.7039 23.217 33.1697C23.9038 31.6356 24.4359 30.0226 24.8159 28.328C25.1959 26.6334 25.5168 25.1302 25.7786 23.8128L22.3612 22.8951ZM24.267 28.2041C23.8954 29.8537 23.369 31.4469 22.7018 32.9417C22.0488 34.397 21.179 35.6413 20.1149 36.6377C19.0874 37.5977 17.7869 38.0649 16.1373 38.0649C14.9128 38.0649 13.8009 37.7412 12.8326 37.105C11.8586 36.4632 11.0929 35.5681 10.5553 34.4393L10.1584 33.606L9.59817 34.3407C9.19 34.8784 8.6636 35.3006 8.03305 35.5962C7.39687 35.8974 6.73254 36.0466 6.05976 36.0466C4.7142 36.0466 3.61918 35.6018 2.71276 34.6813C1.80353 33.7609 1.36158 32.6715 1.36158 31.3512C1.36158 30.2196 1.72189 29.2231 2.46504 28.3111C3.19131 27.4131 4.08928 26.912 5.20401 26.7825L6.14139 26.6756L5.60092 25.9015C5.22371 25.3638 4.93096 24.7867 4.73109 24.1843C4.53123 23.5876 4.42989 22.9457 4.42989 22.2814C4.42989 21.2174 4.70576 20.2068 5.25186 19.2778C5.68255 18.5403 6.25962 17.9041 6.97181 17.3777C7.08441 17.7071 7.21108 18.0477 7.35746 18.3996C7.54606 18.8556 7.76 19.2722 7.99083 19.6466C7.70088 19.9394 7.4588 20.2743 7.26738 20.6403C6.99433 21.1723 6.85358 21.7381 6.85358 22.3236C6.85358 24.7051 8.1738 25.5777 9.28008 25.8902C10.5412 26.2449 11.7544 26.5433 12.8889 26.7713L13.4603 27.734C13.176 28.5588 12.9255 29.2766 12.7143 29.8706C12.461 30.5856 12.3315 31.2471 12.3315 31.8326C12.3315 32.8572 12.7031 33.7609 13.4293 34.5237C14.1669 35.2922 15.0761 35.6835 16.1373 35.6835C17.4322 35.6835 18.5132 35.1064 19.352 33.9635C20.1121 32.9304 20.7454 31.7003 21.2268 30.3097C21.7025 28.9444 22.0713 27.5454 22.3246 26.1492C22.5104 25.1189 22.6681 24.2631 22.7976 23.5932L25.1227 24.2209C24.8834 25.3976 24.5963 26.7375 24.267 28.2041ZM6.05976 29.0373C5.4095 29.0373 4.85495 29.2597 4.413 29.7045C3.96824 30.1492 3.74304 30.7038 3.74304 31.3512C3.74304 31.9987 3.96824 32.556 4.413 32.998C4.85495 33.4428 5.4095 33.668 6.05976 33.668C6.71002 33.668 7.26175 33.4428 7.70651 32.998C8.14846 32.556 8.37366 32.0015 8.37366 31.3512C8.37366 30.701 8.14846 30.1492 7.70651 29.7045C7.26175 29.2597 6.7072 29.0373 6.05976 29.0373ZM7.30679 32.6011C6.97181 32.9361 6.55519 33.105 6.05976 33.105C5.56432 33.105 5.14489 32.9361 4.80991 32.6011C4.47493 32.2661 4.30603 31.8495 4.30603 31.3512C4.30603 30.853 4.47493 30.4392 4.80991 30.1042C5.14489 29.7664 5.56151 29.6003 6.05976 29.6003C6.55801 29.6003 6.97181 29.7664 7.30679 30.1042C7.64459 30.4392 7.81067 30.8558 7.81067 31.3512C7.81067 31.8467 7.64459 32.2661 7.30679 32.6011ZM41.6438 27.9564C40.8274 26.9486 39.7887 26.3716 38.5332 26.2252C38.9414 25.6397 39.2567 25.0204 39.4762 24.3617C39.693 23.7058 39.8028 23.0105 39.8028 22.2814C39.8028 20.1195 39.0427 18.439 37.5255 17.2398C36.0054 16.0434 34.2376 15.4439 32.2221 15.4439C30.7329 15.4439 29.0946 15.6916 27.3128 16.1898C25.5309 16.6853 23.5013 17.2989 21.2212 18.028L22.1417 21.4482C24.3345 20.7163 26.2459 20.1195 27.8842 19.6494C29.5197 19.1821 30.9525 18.9485 32.177 18.9485C33.2017 18.9485 34.1419 19.2131 35.0061 19.7395C35.8674 20.2631 36.2981 21.1104 36.2981 22.2814C36.2981 23.9169 35.6338 24.9247 34.3051 25.3047C32.9737 25.6847 31.6957 25.9915 30.4683 26.2252L29.6351 27.627C29.9588 28.5616 30.2347 29.3498 30.4683 29.9944C30.702 30.6362 30.8202 31.2358 30.8202 31.7904C30.8202 32.6968 30.5049 33.4765 29.8772 34.1352C29.2495 34.7911 28.4669 35.1205 27.5323 35.1205C27.2114 35.1205 26.8905 35.0783 26.5696 34.9882C26.2459 34.9009 25.925 34.7545 25.6041 34.5519C25.3423 35.0191 25.0495 35.5287 24.7286 36.086C24.4077 36.6406 24.084 37.1219 23.7631 37.5301C24.3486 37.9101 24.9538 38.1888 25.5816 38.3633C26.2121 38.5379 26.8455 38.6279 27.4901 38.6279C28.861 38.6279 30.0827 38.2761 31.1496 37.5751C32.2136 36.8742 33.0412 35.9087 33.6239 34.6813C34.0912 35.295 34.6823 35.7707 35.4002 36.1057C36.1152 36.4435 36.8527 36.6096 37.6127 36.6096C39.1018 36.6096 40.3517 36.1001 41.3595 35.0783C42.3672 34.0536 42.8711 32.8122 42.8711 31.3512C42.8711 30.0958 42.4629 28.9641 41.6438 27.9564ZM40.9597 34.6813C40.0533 35.6018 38.9583 36.0466 37.6127 36.0466C36.94 36.0466 36.2756 35.8974 35.6394 35.5962C35.0089 35.3006 34.4825 34.8784 34.0715 34.3407L33.5141 33.606L33.1172 34.4393C32.5796 35.5681 31.8139 36.4632 30.8399 37.105C29.8716 37.7412 28.7428 38.0649 27.4901 38.0649C26.9018 38.0649 26.3106 37.9833 25.7336 37.8228C25.3451 37.7131 24.9623 37.5582 24.5879 37.3612C24.7962 37.06 25.0073 36.725 25.2156 36.3675C25.4296 35.9931 25.635 35.6413 25.8208 35.3119C26.0207 35.4048 26.2206 35.478 26.4204 35.5315C26.7892 35.6328 27.1636 35.6835 27.5323 35.6835C28.6217 35.6835 29.5478 35.2922 30.2854 34.5237C31.0144 33.7609 31.3832 32.8404 31.3832 31.7904C31.3832 31.1711 31.2537 30.5039 30.9976 29.8002C30.7892 29.2231 30.5387 28.5138 30.2544 27.689L30.823 26.7291C31.9884 26.4982 33.2073 26.2027 34.4572 25.8452C35.555 25.5327 36.8611 24.6601 36.8611 22.2814C36.8611 20.9077 36.3347 19.8915 35.2988 19.2581C34.3502 18.6811 33.3002 18.3855 32.177 18.3855C30.9047 18.3855 29.4071 18.6304 27.7294 19.1089C26.2346 19.5368 24.4865 20.0801 22.5301 20.7247L21.9052 18.4024C23.9658 17.7465 25.8321 17.1863 27.4648 16.7303C29.1903 16.2489 30.7892 16.0069 32.2221 16.0069C34.0997 16.0069 35.7661 16.5698 37.1764 17.6818C38.5642 18.7768 39.2398 20.2828 39.2398 22.2814C39.2398 22.9457 39.1413 23.5876 38.9414 24.1843C38.7387 24.7867 38.4488 25.3638 38.0716 25.9015L37.5311 26.6756L38.4685 26.7825C39.5832 26.912 40.4784 27.4131 41.2074 28.3111C41.9478 29.2231 42.3081 30.2196 42.3081 31.3512C42.3081 32.6715 41.8661 33.7609 40.9597 34.6813ZM37.6127 28.9923C36.9625 28.9923 36.4079 29.2175 35.966 29.6623C35.5212 30.1042 35.296 30.6588 35.296 31.309C35.296 31.9593 35.5297 32.5195 35.9885 32.9783C36.4473 33.4371 37.0075 33.668 37.655 33.668C38.3024 33.668 38.8598 33.4399 39.2905 32.9896C39.7127 32.5476 39.9294 31.9959 39.9294 31.3512C39.9294 30.7066 39.7071 30.1492 39.2679 29.6904C38.8232 29.2288 38.2658 28.9923 37.6127 28.9923ZM38.8823 32.6011C38.5614 32.9361 38.1532 33.105 37.655 33.105C37.1567 33.105 36.7373 32.9304 36.3854 32.5786C36.0335 32.2295 35.859 31.8044 35.859 31.309C35.859 30.8136 36.0279 30.3941 36.3629 30.0592C36.7007 29.7242 37.1145 29.5553 37.6127 29.5553C38.111 29.5553 38.5248 29.7298 38.8626 30.0817C39.1976 30.4307 39.3665 30.8558 39.3665 31.3512C39.3665 31.8467 39.206 32.2661 38.8823 32.6011ZM31.828 8.76112C30.6006 7.63514 29.1115 7.07214 27.3578 7.07214H26.7441C26.8596 6.7822 26.9496 6.49507 27.0059 6.21921C27.065 5.94053 27.096 5.64214 27.096 5.32123C27.096 3.86027 26.5837 2.61886 25.5619 1.59422C24.5372 0.572383 23.2958 0.0600586 21.8348 0.0600586C20.3739 0.0600586 19.1325 0.572383 18.1106 1.59422C17.0888 2.61886 16.5765 3.86027 16.5765 5.32123C16.5765 5.64214 16.6046 5.94897 16.6637 6.24173C16.7229 6.53167 16.8101 6.82443 16.9283 7.11718C16.8101 7.11718 16.7088 7.10874 16.6215 7.09466C16.5314 7.08059 16.4301 7.07214 16.3147 7.07214C14.4146 7.07214 12.8157 7.7224 11.5152 9.02292C10.2147 10.3234 9.56439 11.9223 9.56439 13.8224C9.56439 14.8752 9.77552 15.8886 10.2006 16.8682C10.6228 17.8478 11.2309 18.8246 12.019 19.8042C12.8072 20.7839 13.7503 21.7916 14.8453 22.8275C15.9403 23.8662 17.162 24.9838 18.5047 26.1801L21.0016 23.6833C19.8052 22.6305 18.7159 21.6509 17.7391 20.7473C16.7595 19.8408 15.9262 18.9851 15.2394 18.1828C14.5525 17.3806 14.0205 16.6205 13.6405 15.9027C13.2604 15.1877 13.0718 14.4952 13.0718 13.8224C13.0718 12.8879 13.3787 12.1137 13.9923 11.5001C14.6032 10.8864 15.3801 10.5796 16.3147 10.5796C17.2493 10.5796 18.0459 10.8639 18.6145 11.4325C19.1831 12.004 19.9798 12.8879 21.0016 14.0842H22.6258C23.6167 12.947 24.3993 12.0772 24.9679 11.4776C25.5393 10.878 26.336 10.5796 27.3578 10.5796C28.1178 10.5796 28.7681 10.7992 29.3086 11.2355C29.849 11.6746 30.2206 12.2292 30.4261 12.9019C30.9807 12.8428 31.5859 12.8147 32.2446 12.8147C32.9033 12.8147 33.4916 12.8569 34.018 12.947C33.7844 11.2805 33.0553 9.8843 31.828 8.76112ZM30.8061 12.3024C30.55 11.714 30.1671 11.2101 29.6633 10.7992C29.0214 10.2784 28.2445 10.0166 27.3578 10.0166C26.1783 10.0166 25.2381 10.3769 24.5625 11.0891C24.0193 11.6577 23.2817 12.4769 22.3697 13.5212H21.2634C20.3148 12.415 19.5575 11.5817 19.0114 11.0356C18.3358 10.36 17.4294 10.0166 16.3147 10.0166C15.2 10.0166 14.3132 10.3825 13.5926 11.1004C12.872 11.821 12.5088 12.7359 12.5088 13.8224C12.5088 14.5825 12.7228 15.3735 13.1422 16.1673C13.5419 16.9161 14.1021 17.7184 14.8115 18.5488C15.5096 19.3651 16.3654 20.2434 17.3562 21.1582C18.2092 21.9492 19.1578 22.805 20.1796 23.7086L18.4822 25.406C17.3027 24.3476 16.2105 23.3455 15.2337 22.4193C14.1612 21.4031 13.2267 20.4066 12.4582 19.4496C11.7038 18.515 11.1183 17.572 10.7157 16.643C10.3272 15.7422 10.1274 14.7908 10.1274 13.8224C10.1274 12.0631 10.7129 10.6218 11.9121 9.42264C13.1141 8.22065 14.5525 7.63514 16.3147 7.63514C16.3991 7.63514 16.4723 7.64077 16.5286 7.64921C16.6469 7.66892 16.7792 7.68018 16.9283 7.68018H17.7588L17.4491 6.90887C17.3478 6.6499 17.269 6.38811 17.2155 6.12913C17.1648 5.87578 17.1395 5.60273 17.1395 5.32123C17.1395 4.00383 17.5871 2.91444 18.5075 1.99394C19.428 1.07345 20.5174 0.623052 21.8348 0.623052C23.1522 0.623052 24.2416 1.07063 25.1621 1.99394C26.0826 2.91444 26.533 4.00383 26.533 5.32123C26.533 5.59992 26.5049 5.86452 26.457 6.10098C26.4035 6.34588 26.3247 6.60204 26.2206 6.86384L25.9137 7.63514H27.3578C28.9792 7.63514 30.3163 8.13902 31.448 9.17492C32.3994 10.0504 33.0187 11.075 33.3199 12.2939C32.9821 12.2658 32.6218 12.2517 32.2446 12.2517C31.7379 12.2517 31.2565 12.2686 30.8061 12.3024ZM21.8348 3.00451C21.1874 3.00451 20.6328 3.22971 20.1881 3.67166C19.7461 4.11643 19.5209 4.67098 19.5209 5.32123C19.5209 5.97149 19.7461 6.52322 20.1881 6.96799C20.6328 7.40994 21.1874 7.63514 21.8348 7.63514C22.4823 7.63514 23.0396 7.40994 23.4816 6.96799C23.9235 6.52604 24.1516 5.96868 24.1516 5.32123C24.1516 4.67379 23.9264 4.11643 23.4816 3.67166C23.0368 3.2269 22.4851 3.00451 21.8348 3.00451ZM23.0847 6.56826C22.7497 6.90606 22.3331 7.07214 21.8348 7.07214C21.3366 7.07214 20.9228 6.90606 20.5878 6.56826C20.25 6.23328 20.0839 5.81667 20.0839 5.32123C20.0839 4.8258 20.25 4.40637 20.5878 4.07139C20.9228 3.73641 21.3394 3.56751 21.8348 3.56751C22.3303 3.56751 22.7497 3.73641 23.0847 4.07139C23.4197 4.40637 23.5886 4.82298 23.5886 5.32123C23.5886 5.81948 23.4197 6.23328 23.0847 6.56826ZM7.70651 29.7045C7.26175 29.2597 6.7072 29.0373 6.05976 29.0373C5.41232 29.0373 4.85495 29.2597 4.413 29.7045C3.96824 30.1492 3.74304 30.7038 3.74304 31.3512C3.74304 31.9987 3.96824 32.556 4.413 32.998C4.85495 33.4428 5.4095 33.668 6.05976 33.668C6.71002 33.668 7.26175 33.4428 7.70651 32.998C8.14846 32.556 8.37366 32.0015 8.37366 31.3512C8.37366 30.701 8.14846 30.1492 7.70651 29.7045ZM7.30679 32.6011C6.97181 32.9361 6.55519 33.105 6.05976 33.105C5.56432 33.105 5.14489 32.9361 4.80991 32.6011C4.47493 32.2661 4.30603 31.8495 4.30603 31.3512C4.30603 30.853 4.47493 30.4392 4.80991 30.1042C5.14489 29.7664 5.56151 29.6003 6.05976 29.6003C6.55801 29.6003 6.97181 29.7664 7.30679 30.1042C7.64459 30.4392 7.81067 30.8558 7.81067 31.3512C7.81067 31.8467 7.64459 32.2661 7.30679 32.6011ZM7.70651 29.7045C7.26175 29.2597 6.7072 29.0373 6.05976 29.0373C5.41232 29.0373 4.85495 29.2597 4.413 29.7045C3.96824 30.1492 3.74304 30.7038 3.74304 31.3512C3.74304 31.9987 3.96824 32.556 4.413 32.998C4.85495 33.4428 5.4095 33.668 6.05976 33.668C6.71002 33.668 7.26175 33.4428 7.70651 32.998C8.14846 32.556 8.37366 32.0015 8.37366 31.3512C8.37366 30.701 8.14846 30.1492 7.70651 29.7045ZM7.30679 32.6011C6.97181 32.9361 6.55519 33.105 6.05976 33.105C5.56432 33.105 5.14489 32.9361 4.80991 32.6011C4.47493 32.2661 4.30603 31.8495 4.30603 31.3512C4.30603 30.853 4.47493 30.4392 4.80991 30.1042C5.14489 29.7664 5.56151 29.6003 6.05976 29.6003C6.55801 29.6003 6.97181 29.7664 7.30679 30.1042C7.64459 30.4392 7.81067 30.8558 7.81067 31.3512C7.81067 31.8467 7.64459 32.2661 7.30679 32.6011ZM39.2679 29.6904C38.8232 29.2288 38.2658 28.9923 37.6127 28.9923C36.9597 28.9923 36.4079 29.2175 35.966 29.6623C35.5212 30.1042 35.296 30.6588 35.296 31.309C35.296 31.9593 35.5297 32.5195 35.9885 32.9783C36.4473 33.4371 37.0075 33.668 37.655 33.668C38.3024 33.668 38.8598 33.4399 39.2905 32.9896C39.7127 32.5476 39.9294 31.9959 39.9294 31.3512C39.9294 30.7066 39.7071 30.1492 39.2679 29.6904ZM38.8823 32.6011C38.5614 32.9361 38.1532 33.105 37.655 33.105C37.1567 33.105 36.7373 32.9304 36.3854 32.5786C36.0335 32.2295 35.859 31.8044 35.859 31.309C35.859 30.8136 36.0279 30.3941 36.3629 30.0592C36.7007 29.7242 37.1145 29.5553 37.6127 29.5553C38.111 29.5553 38.5248 29.7298 38.8626 30.0817C39.1976 30.4307 39.3665 30.8558 39.3665 31.3512C39.3665 31.8467 39.206 32.2661 38.8823 32.6011ZM39.2679 29.6904C38.8232 29.2288 38.2658 28.9923 37.6127 28.9923C36.9597 28.9923 36.4079 29.2175 35.966 29.6623C35.5212 30.1042 35.296 30.6588 35.296 31.309C35.296 31.9593 35.5297 32.5195 35.9885 32.9783C36.4473 33.4371 37.0075 33.668 37.655 33.668C38.3024 33.668 38.8598 33.4399 39.2905 32.9896C39.7127 32.5476 39.9294 31.9959 39.9294 31.3512C39.9294 30.7066 39.7071 30.1492 39.2679 29.6904ZM38.8823 32.6011C38.5614 32.9361 38.1532 33.105 37.655 33.105C37.1567 33.105 36.7373 32.9304 36.3854 32.5786C36.0335 32.2295 35.859 31.8044 35.859 31.309C35.859 30.8136 36.0279 30.3941 36.3629 30.0592C36.7007 29.7242 37.1145 29.5553 37.6127 29.5553C38.111 29.5553 38.5248 29.7298 38.8626 30.0817C39.1976 30.4307 39.3665 30.8558 39.3665 31.3512C39.3665 31.8467 39.206 32.2661 38.8823 32.6011ZM23.4816 3.67166C23.0396 3.22971 22.4851 3.00451 21.8348 3.00451C21.1846 3.00451 20.6328 3.22971 20.1881 3.67166C19.7461 4.11643 19.5209 4.67098 19.5209 5.32123C19.5209 5.97149 19.7461 6.52322 20.1881 6.96799C20.6328 7.40994 21.1874 7.63514 21.8348 7.63514C22.4823 7.63514 23.0396 7.40994 23.4816 6.96799C23.9235 6.52604 24.1516 5.96868 24.1516 5.32123C24.1516 4.67379 23.9264 4.11643 23.4816 3.67166ZM23.0847 6.56826C22.7497 6.90606 22.3331 7.07214 21.8348 7.07214C21.3366 7.07214 20.9228 6.90606 20.5878 6.56826C20.25 6.23328 20.0839 5.81667 20.0839 5.32123C20.0839 4.8258 20.25 4.40637 20.5878 4.07139C20.9228 3.73641 21.3394 3.56751 21.8348 3.56751C22.3303 3.56751 22.7497 3.73641 23.0847 4.07139C23.4197 4.40637 23.5886 4.82298 23.5886 5.32123C23.5886 5.81948 23.4197 6.23328 23.0847 6.56826ZM23.4816 3.67166C23.0396 3.22971 22.4851 3.00451 21.8348 3.00451C21.1846 3.00451 20.6328 3.22971 20.1881 3.67166C19.7461 4.11643 19.5209 4.67098 19.5209 5.32123C19.5209 5.97149 19.7461 6.52322 20.1881 6.96799C20.6328 7.40994 21.1874 7.63514 21.8348 7.63514C22.4823 7.63514 23.0396 7.40994 23.4816 6.96799C23.9235 6.52604 24.1516 5.96868 24.1516 5.32123C24.1516 4.67379 23.9264 4.11643 23.4816 3.67166ZM23.0847 6.56826C22.7497 6.90606 22.3331 7.07214 21.8348 7.07214C21.3366 7.07214 20.9228 6.90606 20.5878 6.56826C20.25 6.23328 20.0839 5.81667 20.0839 5.32123C20.0839 4.8258 20.25 4.40637 20.5878 4.07139C20.9228 3.73641 21.3394 3.56751 21.8348 3.56751C22.3303 3.56751 22.7497 3.73641 23.0847 4.07139C23.4197 4.40637 23.5886 4.82298 23.5886 5.32123C23.5886 5.81948 23.4197 6.23328 23.0847 6.56826Z" fill="#939393"/>
</svg>
