<svg width="35" height="34" viewBox="0 0 35 34" fill="none" xmlns="http://www.w3.org/2000/svg">
<path d="M21.6638 13.2012C20.5393 12.0767 19.179 11.5132 17.5853 11.5132C15.9917 11.5132 14.5991 12.0767 13.487 13.2012C12.3749 14.3282 11.8189 15.686 11.8189 17.2796C11.8189 18.8733 12.3749 20.2311 13.487 21.3581C14.5991 22.4826 15.9669 23.0461 17.5853 23.0461C19.2038 23.0461 20.5393 22.4826 21.6638 21.3581C22.7883 20.2336 23.3518 18.8733 23.3518 17.2796C23.3518 15.686 22.7907 14.3282 21.6638 13.2012ZM19.4471 19.1389C18.9332 19.6527 18.3126 19.9109 17.5853 19.9109C16.858 19.9109 16.225 19.6527 15.7161 19.1389C15.2097 18.6275 14.9565 18.007 14.9565 17.2796C14.9565 16.5523 15.2097 15.9342 15.7161 15.4204C16.225 14.9065 16.8481 14.6484 17.5853 14.6484C18.3226 14.6484 18.9332 14.9065 19.4471 15.4204C19.9609 15.9342 20.2166 16.5523 20.2166 17.2796C20.2166 18.007 19.9609 18.6275 19.4471 19.1389ZM21.6638 13.2012C20.5393 12.0767 19.179 11.5132 17.5853 11.5132C15.9917 11.5132 14.5991 12.0767 13.487 13.2012C12.3749 14.3282 11.8189 15.686 11.8189 17.2796C11.8189 18.8733 12.3749 20.2311 13.487 21.3581C14.5991 22.4826 15.9669 23.0461 17.5853 23.0461C19.2038 23.0461 20.5393 22.4826 21.6638 21.3581C22.7883 20.2336 23.3518 18.8733 23.3518 17.2796C23.3518 15.686 22.7907 14.3282 21.6638 13.2012ZM19.4471 19.1389C18.9332 19.6527 18.3126 19.9109 17.5853 19.9109C16.858 19.9109 16.225 19.6527 15.7161 19.1389C15.2097 18.6275 14.9565 18.007 14.9565 17.2796C14.9565 16.5523 15.2097 15.9342 15.7161 15.4204C16.225 14.9065 16.8481 14.6484 17.5853 14.6484C18.3226 14.6484 18.9332 14.9065 19.4471 15.4204C19.9609 15.9342 20.2166 16.5523 20.2166 17.2796C20.2166 18.007 19.9609 18.6275 19.4471 19.1389ZM21.6638 13.2012C20.5393 12.0767 19.179 11.5132 17.5853 11.5132C15.9917 11.5132 14.5991 12.0767 13.487 13.2012C12.3749 14.3282 11.8189 15.686 11.8189 17.2796C11.8189 18.8733 12.3749 20.2311 13.487 21.3581C14.5991 22.4826 15.9669 23.0461 17.5853 23.0461C19.2038 23.0461 20.5393 22.4826 21.6638 21.3581C22.7883 20.2336 23.3518 18.8733 23.3518 17.2796C23.3518 15.686 22.7907 14.3282 21.6638 13.2012ZM19.4471 19.1389C18.9332 19.6527 18.3126 19.9109 17.5853 19.9109C16.858 19.9109 16.225 19.6527 15.7161 19.1389C15.2097 18.6275 14.9565 18.007 14.9565 17.2796C14.9565 16.5523 15.2097 15.9342 15.7161 15.4204C16.225 14.9065 16.8481 14.6484 17.5853 14.6484C18.3226 14.6484 18.9332 14.9065 19.4471 15.4204C19.9609 15.9342 20.2166 16.5523 20.2166 17.2796C20.2166 18.007 19.9609 18.6275 19.4471 19.1389ZM21.6638 13.2012C20.5393 12.0767 19.179 11.5132 17.5853 11.5132C15.9917 11.5132 14.5991 12.0767 13.487 13.2012C12.3749 14.3282 11.8189 15.686 11.8189 17.2796C11.8189 18.8733 12.3749 20.2311 13.487 21.3581C14.5991 22.4826 15.9669 23.0461 17.5853 23.0461C19.2038 23.0461 20.5393 22.4826 21.6638 21.3581C22.7883 20.2336 23.3518 18.8733 23.3518 17.2796C23.3518 15.686 22.7907 14.3282 21.6638 13.2012ZM19.4471 19.1389C18.9332 19.6527 18.3126 19.9109 17.5853 19.9109C16.858 19.9109 16.225 19.6527 15.7161 19.1389C15.2097 18.6275 14.9565 18.007 14.9565 17.2796C14.9565 16.5523 15.2097 15.9342 15.7161 15.4204C16.225 14.9065 16.8481 14.6484 17.5853 14.6484C18.3226 14.6484 18.9332 14.9065 19.4471 15.4204C19.9609 15.9342 20.2166 16.5523 20.2166 17.2796C20.2166 18.007 19.9609 18.6275 19.4471 19.1389ZM29.8728 17.8357V16.7236C29.8728 16.5449 29.8604 16.3587 29.8331 16.1676L34.0779 12.9505L29.5427 5.11628L24.6376 7.17908C24.3348 6.95816 24.0245 6.75212 23.7092 6.5585C23.394 6.36736 23.0564 6.20353 22.6989 6.06452L22.0386 0.787109H12.9682L12.3079 6.06452C11.9778 6.20353 11.6476 6.36736 11.32 6.5585C10.9898 6.75212 10.6721 6.95816 10.3717 7.17908L5.46416 5.11628L0.928955 12.9505L5.17621 16.1676C5.1489 16.3587 5.13401 16.5449 5.13401 16.7236V17.8357C5.13401 18.0144 5.1489 18.2006 5.17621 18.3942L0.928955 21.6088L5.46416 29.443L10.3717 27.3827C10.6721 27.6011 10.9824 27.8072 11.2976 28.0008C11.6153 28.1919 11.9505 28.3582 12.3079 28.4948L12.9682 33.7722H22.0386L22.6989 28.4948C23.0291 28.3582 23.3592 28.1919 23.6893 28.0008C24.0195 27.8072 24.3348 27.6011 24.6376 27.3827L29.5029 29.443L34.0381 21.6088L29.7909 18.3942C29.8455 18.2006 29.8728 18.0144 29.8728 17.8357ZM26.4919 15.9814C26.5465 16.4083 26.5738 16.8403 26.5738 17.2796C26.5738 17.719 26.5465 18.1534 26.4919 18.5779C26.4373 19.0049 26.3405 19.4095 26.2039 19.7942L29.7487 22.4751L28.1426 25.2777L24.0592 23.5872C23.456 24.1929 22.7883 24.7092 22.0609 25.1337C21.3311 25.5607 20.5418 25.8834 19.6878 26.1043L19.1119 30.4732H15.8551L15.319 26.1043C14.4675 25.8834 13.6757 25.5607 12.9484 25.1337C12.2185 24.7092 11.5533 24.1805 10.9476 23.5475L6.86667 25.2777L5.25812 22.4751L8.80287 19.7942C8.66635 19.3822 8.56954 18.9701 8.51492 18.558C8.46031 18.146 8.43301 17.719 8.43301 17.2796C8.43301 16.813 8.46031 16.3736 8.51492 15.9615C8.56954 15.547 8.66635 15.1349 8.80287 14.7229L5.25812 12.0841L6.86667 9.28161L10.9476 10.9721C11.5533 10.3664 12.2185 9.85254 12.9484 9.42558C13.6757 8.99862 14.4675 8.67592 15.319 8.45748L15.8949 4.08611H19.1542L19.6878 8.45748C20.5418 8.67592 21.3311 8.99862 22.0609 9.42558C22.7883 9.85254 23.456 10.3813 24.0592 11.0118L28.1426 9.28161L29.7487 12.0841L26.2039 14.7651C26.3405 15.1498 26.4373 15.5544 26.4919 15.9814ZM17.5853 11.5132C15.9669 11.5132 14.5991 12.0767 13.487 13.2012C12.3749 14.3282 11.8189 15.686 11.8189 17.2796C11.8189 18.8733 12.3749 20.2311 13.487 21.3581C14.5991 22.4826 15.9669 23.0461 17.5853 23.0461C19.2038 23.0461 20.5393 22.4826 21.6638 21.3581C22.7883 20.2336 23.3518 18.8733 23.3518 17.2796C23.3518 15.686 22.7907 14.3282 21.6638 13.2012C20.5393 12.0767 19.179 11.5132 17.5853 11.5132ZM19.4471 19.1389C18.9332 19.6527 18.3126 19.9109 17.5853 19.9109C16.858 19.9109 16.225 19.6527 15.7161 19.1389C15.2097 18.6275 14.9565 18.007 14.9565 17.2796C14.9565 16.5523 15.2097 15.9342 15.7161 15.4204C16.225 14.9065 16.8481 14.6484 17.5853 14.6484C18.3226 14.6484 18.9332 14.9065 19.4471 15.4204C19.9609 15.9342 20.2166 16.5523 20.2166 17.2796C20.2166 18.007 19.9609 18.6275 19.4471 19.1389ZM21.6638 13.2012C20.5393 12.0767 19.179 11.5132 17.5853 11.5132C15.9917 11.5132 14.5991 12.0767 13.487 13.2012C12.3749 14.3282 11.8189 15.686 11.8189 17.2796C11.8189 18.8733 12.3749 20.2311 13.487 21.3581C14.5991 22.4826 15.9669 23.0461 17.5853 23.0461C19.2038 23.0461 20.5393 22.4826 21.6638 21.3581C22.7883 20.2336 23.3518 18.8733 23.3518 17.2796C23.3518 15.686 22.7907 14.3282 21.6638 13.2012ZM19.4471 19.1389C18.9332 19.6527 18.3126 19.9109 17.5853 19.9109C16.858 19.9109 16.225 19.6527 15.7161 19.1389C15.2097 18.6275 14.9565 18.007 14.9565 17.2796C14.9565 16.5523 15.2097 15.9342 15.7161 15.4204C16.225 14.9065 16.8481 14.6484 17.5853 14.6484C18.3226 14.6484 18.9332 14.9065 19.4471 15.4204C19.9609 15.9342 20.2166 16.5523 20.2166 17.2796C20.2166 18.007 19.9609 18.6275 19.4471 19.1389ZM21.6638 13.2012C20.5393 12.0767 19.179 11.5132 17.5853 11.5132C15.9917 11.5132 14.5991 12.0767 13.487 13.2012C12.3749 14.3282 11.8189 15.686 11.8189 17.2796C11.8189 18.8733 12.3749 20.2311 13.487 21.3581C14.5991 22.4826 15.9669 23.0461 17.5853 23.0461C19.2038 23.0461 20.5393 22.4826 21.6638 21.3581C22.7883 20.2336 23.3518 18.8733 23.3518 17.2796C23.3518 15.686 22.7907 14.3282 21.6638 13.2012ZM19.4471 19.1389C18.9332 19.6527 18.3126 19.9109 17.5853 19.9109C16.858 19.9109 16.225 19.6527 15.7161 19.1389C15.2097 18.6275 14.9565 18.007 14.9565 17.2796C14.9565 16.5523 15.2097 15.9342 15.7161 15.4204C16.225 14.9065 16.8481 14.6484 17.5853 14.6484C18.3226 14.6484 18.9332 14.9065 19.4471 15.4204C19.9609 15.9342 20.2166 16.5523 20.2166 17.2796C20.2166 18.007 19.9609 18.6275 19.4471 19.1389Z" fill="#00FFF0"/>
</svg>
