<svg width="34" height="34" viewBox="0 0 34 34" fill="none" xmlns="http://www.w3.org/2000/svg">
<path d="M21.3166 12.9336C20.1921 11.8091 18.8318 11.2456 17.2382 11.2456C15.6445 11.2456 14.2519 11.8091 13.1399 12.9336C12.0278 14.0606 11.4717 15.4184 11.4717 17.0121C11.4717 18.6057 12.0278 19.9636 13.1399 21.0905C14.2519 22.215 15.6197 22.7785 17.2382 22.7785C18.8566 22.7785 20.1921 22.215 21.3166 21.0905C22.4411 19.966 23.0046 18.6057 23.0046 17.0121C23.0046 15.4184 22.4436 14.0606 21.3166 12.9336ZM20.9666 20.7405C19.9265 21.7781 18.7077 22.282 17.2382 22.282C15.7686 22.282 14.5175 21.7781 13.4923 20.743C12.4671 19.7029 11.9682 18.4841 11.9682 17.0121C11.9682 15.5401 12.4671 14.3237 13.4923 13.2836C14.5175 12.246 15.7438 11.7421 17.2382 11.7421C18.7325 11.7421 19.9265 12.2485 20.9666 13.2861C22.0042 14.3237 22.5081 15.5425 22.5081 17.0121C22.5081 18.4816 22.0042 19.7029 20.9666 20.7405ZM17.2382 13.8843C16.3669 13.8843 15.6197 14.1946 15.0165 14.8053C14.4158 15.4135 14.1129 16.1557 14.1129 17.0121C14.1129 17.8685 14.4158 18.6157 15.0165 19.2213C15.6197 19.832 16.3669 20.1398 17.2382 20.1398C18.1095 20.1398 18.8417 19.832 19.4499 19.2238C20.0581 18.6206 20.3659 17.8759 20.3659 17.0121C20.3659 16.1482 20.0581 15.411 19.4499 14.8028C18.8417 14.1946 18.097 13.8843 17.2382 13.8843ZM19.0999 18.8713C18.5861 19.3852 17.9655 19.6433 17.2382 19.6433C16.5108 19.6433 15.8779 19.3852 15.369 18.8713C14.8626 18.36 14.6094 17.7394 14.6094 17.0121C14.6094 16.2848 14.8626 15.6667 15.369 15.1528C15.8779 14.639 16.5009 14.3808 17.2382 14.3808C17.9754 14.3808 18.5861 14.639 19.0999 15.1528C19.6137 15.6667 19.8694 16.2848 19.8694 17.0121C19.8694 17.7394 19.6137 18.36 19.0999 18.8713ZM21.3166 12.9336C20.1921 11.8091 18.8318 11.2456 17.2382 11.2456C15.6445 11.2456 14.2519 11.8091 13.1399 12.9336C12.0278 14.0606 11.4717 15.4184 11.4717 17.0121C11.4717 18.6057 12.0278 19.9636 13.1399 21.0905C14.2519 22.215 15.6197 22.7785 17.2382 22.7785C18.8566 22.7785 20.1921 22.215 21.3166 21.0905C22.4411 19.966 23.0046 18.6057 23.0046 17.0121C23.0046 15.4184 22.4436 14.0606 21.3166 12.9336ZM20.9666 20.7405C19.9265 21.7781 18.7077 22.282 17.2382 22.282C15.7686 22.282 14.5175 21.7781 13.4923 20.743C12.4671 19.7029 11.9682 18.4841 11.9682 17.0121C11.9682 15.5401 12.4671 14.3237 13.4923 13.2836C14.5175 12.246 15.7438 11.7421 17.2382 11.7421C18.7325 11.7421 19.9265 12.2485 20.9666 13.2861C22.0042 14.3237 22.5081 15.5425 22.5081 17.0121C22.5081 18.4816 22.0042 19.7029 20.9666 20.7405ZM17.2382 13.8843C16.3669 13.8843 15.6197 14.1946 15.0165 14.8053C14.4158 15.4135 14.1129 16.1557 14.1129 17.0121C14.1129 17.8685 14.4158 18.6157 15.0165 19.2213C15.6197 19.832 16.3669 20.1398 17.2382 20.1398C18.1095 20.1398 18.8417 19.832 19.4499 19.2238C20.0581 18.6206 20.3659 17.8759 20.3659 17.0121C20.3659 16.1482 20.0581 15.411 19.4499 14.8028C18.8417 14.1946 18.097 13.8843 17.2382 13.8843ZM19.0999 18.8713C18.5861 19.3852 17.9655 19.6433 17.2382 19.6433C16.5108 19.6433 15.8779 19.3852 15.369 18.8713C14.8626 18.36 14.6094 17.7394 14.6094 17.0121C14.6094 16.2848 14.8626 15.6667 15.369 15.1528C15.8779 14.639 16.5009 14.3808 17.2382 14.3808C17.9754 14.3808 18.5861 14.639 19.0999 15.1528C19.6137 15.6667 19.8694 16.2848 19.8694 17.0121C19.8694 17.7394 19.6137 18.36 19.0999 18.8713ZM21.3166 12.9336C20.1921 11.8091 18.8318 11.2456 17.2382 11.2456C15.6445 11.2456 14.2519 11.8091 13.1399 12.9336C12.0278 14.0606 11.4717 15.4184 11.4717 17.0121C11.4717 18.6057 12.0278 19.9636 13.1399 21.0905C14.2519 22.215 15.6197 22.7785 17.2382 22.7785C18.8566 22.7785 20.1921 22.215 21.3166 21.0905C22.4411 19.966 23.0046 18.6057 23.0046 17.0121C23.0046 15.4184 22.4436 14.0606 21.3166 12.9336ZM20.9666 20.7405C19.9265 21.7781 18.7077 22.282 17.2382 22.282C15.7686 22.282 14.5175 21.7781 13.4923 20.743C12.4671 19.7029 11.9682 18.4841 11.9682 17.0121C11.9682 15.5401 12.4671 14.3237 13.4923 13.2836C14.5175 12.246 15.7438 11.7421 17.2382 11.7421C18.7325 11.7421 19.9265 12.2485 20.9666 13.2861C22.0042 14.3237 22.5081 15.5425 22.5081 17.0121C22.5081 18.4816 22.0042 19.7029 20.9666 20.7405ZM17.2382 13.8843C16.3669 13.8843 15.6197 14.1946 15.0165 14.8053C14.4158 15.4135 14.1129 16.1557 14.1129 17.0121C14.1129 17.8685 14.4158 18.6157 15.0165 19.2213C15.6197 19.832 16.3669 20.1398 17.2382 20.1398C18.1095 20.1398 18.8417 19.832 19.4499 19.2238C20.0581 18.6206 20.3659 17.8759 20.3659 17.0121C20.3659 16.1482 20.0581 15.411 19.4499 14.8028C18.8417 14.1946 18.097 13.8843 17.2382 13.8843ZM19.0999 18.8713C18.5861 19.3852 17.9655 19.6433 17.2382 19.6433C16.5108 19.6433 15.8779 19.3852 15.369 18.8713C14.8626 18.36 14.6094 17.7394 14.6094 17.0121C14.6094 16.2848 14.8626 15.6667 15.369 15.1528C15.8779 14.639 16.5009 14.3808 17.2382 14.3808C17.9754 14.3808 18.5861 14.639 19.0999 15.1528C19.6137 15.6667 19.8694 16.2848 19.8694 17.0121C19.8694 17.7394 19.6137 18.36 19.0999 18.8713ZM21.3166 12.9336C20.1921 11.8091 18.8318 11.2456 17.2382 11.2456C15.6445 11.2456 14.2519 11.8091 13.1399 12.9336C12.0278 14.0606 11.4717 15.4184 11.4717 17.0121C11.4717 18.6057 12.0278 19.9636 13.1399 21.0905C14.2519 22.215 15.6197 22.7785 17.2382 22.7785C18.8566 22.7785 20.1921 22.215 21.3166 21.0905C22.4411 19.966 23.0046 18.6057 23.0046 17.0121C23.0046 15.4184 22.4436 14.0606 21.3166 12.9336ZM20.9666 20.7405C19.9265 21.7781 18.7077 22.282 17.2382 22.282C15.7686 22.282 14.5175 21.7781 13.4923 20.743C12.4671 19.7029 11.9682 18.4841 11.9682 17.0121C11.9682 15.5401 12.4671 14.3237 13.4923 13.2836C14.5175 12.246 15.7438 11.7421 17.2382 11.7421C18.7325 11.7421 19.9265 12.2485 20.9666 13.2861C22.0042 14.3237 22.5081 15.5425 22.5081 17.0121C22.5081 18.4816 22.0042 19.7029 20.9666 20.7405ZM17.2382 13.8843C16.3669 13.8843 15.6197 14.1946 15.0165 14.8053C14.4158 15.4135 14.1129 16.1557 14.1129 17.0121C14.1129 17.8685 14.4158 18.6157 15.0165 19.2213C15.6197 19.832 16.3669 20.1398 17.2382 20.1398C18.1095 20.1398 18.8417 19.832 19.4499 19.2238C20.0581 18.6206 20.3659 17.8759 20.3659 17.0121C20.3659 16.1482 20.0581 15.411 19.4499 14.8028C18.8417 14.1946 18.097 13.8843 17.2382 13.8843ZM19.0999 18.8713C18.5861 19.3852 17.9655 19.6433 17.2382 19.6433C16.5108 19.6433 15.8779 19.3852 15.369 18.8713C14.8626 18.36 14.6094 17.7394 14.6094 17.0121C14.6094 16.2848 14.8626 15.6667 15.369 15.1528C15.8779 14.639 16.5009 14.3808 17.2382 14.3808C17.9754 14.3808 18.5861 14.639 19.0999 15.1528C19.6137 15.6667 19.8694 16.2848 19.8694 17.0121C19.8694 17.7394 19.6137 18.36 19.0999 18.8713ZM21.3166 12.9336C20.1921 11.8091 18.8318 11.2456 17.2382 11.2456C15.6445 11.2456 14.2519 11.8091 13.1399 12.9336C12.0278 14.0606 11.4717 15.4184 11.4717 17.0121C11.4717 18.6057 12.0278 19.9636 13.1399 21.0905C14.2519 22.215 15.6197 22.7785 17.2382 22.7785C18.8566 22.7785 20.1921 22.215 21.3166 21.0905C22.4411 19.966 23.0046 18.6057 23.0046 17.0121C23.0046 15.4184 22.4436 14.0606 21.3166 12.9336ZM20.9666 20.7405C19.9265 21.7781 18.7077 22.282 17.2382 22.282C15.7686 22.282 14.5175 21.7781 13.4923 20.743C12.4671 19.7029 11.9682 18.4841 11.9682 17.0121C11.9682 15.5401 12.4671 14.3237 13.4923 13.2836C14.5175 12.246 15.7438 11.7421 17.2382 11.7421C18.7325 11.7421 19.9265 12.2485 20.9666 13.2861C22.0042 14.3237 22.5081 15.5425 22.5081 17.0121C22.5081 18.4816 22.0042 19.7029 20.9666 20.7405ZM17.2382 13.8843C16.3669 13.8843 15.6197 14.1946 15.0165 14.8053C14.4158 15.4135 14.1129 16.1557 14.1129 17.0121C14.1129 17.8685 14.4158 18.6157 15.0165 19.2213C15.6197 19.832 16.3669 20.1398 17.2382 20.1398C18.1095 20.1398 18.8417 19.832 19.4499 19.2238C20.0581 18.6206 20.3659 17.8759 20.3659 17.0121C20.3659 16.1482 20.0581 15.411 19.4499 14.8028C18.8417 14.1946 18.097 13.8843 17.2382 13.8843ZM19.0999 18.8713C18.5861 19.3852 17.9655 19.6433 17.2382 19.6433C16.5108 19.6433 15.8779 19.3852 15.369 18.8713C14.8626 18.36 14.6094 17.7394 14.6094 17.0121C14.6094 16.2848 14.8626 15.6667 15.369 15.1528C15.8779 14.639 16.5009 14.3808 17.2382 14.3808C17.9754 14.3808 18.5861 14.639 19.0999 15.1528C19.6137 15.6667 19.8694 16.2848 19.8694 17.0121C19.8694 17.7394 19.6137 18.36 19.0999 18.8713ZM29.5257 17.5681V16.456C29.5257 16.2773 29.5132 16.0911 29.4859 15.9L33.7307 12.6829L29.1955 4.8487L24.2904 6.91151C23.9876 6.69058 23.6773 6.48455 23.3621 6.29093C23.0468 6.09979 22.7092 5.93596 22.3517 5.79695L21.6914 0.519531H12.621L11.9608 5.79695C11.6306 5.93596 11.3005 6.09979 10.9728 6.29093C10.6426 6.48455 10.3249 6.69058 10.0245 6.91151L5.11699 4.8487L0.581787 12.6829L4.82904 15.9C4.80174 16.0911 4.78684 16.2773 4.78684 16.456V17.5681C4.78684 17.7468 4.80174 17.933 4.82904 18.1266L0.581787 21.3412L5.11699 29.1754L10.0245 27.1151C10.3249 27.3336 10.6352 27.5396 10.9504 27.7332C11.2682 27.9244 11.6033 28.0907 11.9608 28.2272L12.621 33.5046H21.6914L22.3517 28.2272C22.6819 28.0907 23.012 27.9244 23.3422 27.7332C23.6723 27.5396 23.9876 27.3336 24.2904 27.1151L29.1558 29.1754L33.691 21.3412L29.4437 18.1266C29.4984 17.933 29.5257 17.7468 29.5257 17.5681ZM33.0406 21.4728L28.9448 28.5474L24.2259 26.5492L24 26.713C23.7071 26.924 23.4018 27.1226 23.094 27.3038C22.7737 27.49 22.461 27.6463 22.1631 27.7705L21.895 27.8797L21.8602 28.1676L21.2521 33.0082H13.0604L12.4522 28.1676L12.4175 27.8697L12.137 27.7655C11.8217 27.6439 11.509 27.49 11.2111 27.3112C10.8958 27.1176 10.5955 26.919 10.3175 26.7155L10.0891 26.5492L9.8334 26.6584L5.32799 28.5499L1.23216 21.4728L5.1294 18.5238L5.36026 18.3476L5.32055 18.0571C5.29572 17.8834 5.2833 17.7171 5.2833 17.5681V16.456C5.2833 16.3071 5.29572 16.1433 5.32055 15.972L5.36274 15.6815L5.1294 15.5053L1.23216 12.5538L5.32799 5.47673L9.8334 7.37074L10.0916 7.47996L10.3199 7.31364C10.593 7.11258 10.8958 6.91151 11.2235 6.72037C11.5239 6.54661 11.8366 6.38774 12.1544 6.25618L12.4175 6.14447L12.4522 5.859L13.0604 1.016H21.2521L21.8602 5.859L21.895 6.1544L22.173 6.26114C22.5057 6.39022 22.8209 6.54412 23.1014 6.7154C23.4167 6.90903 23.7195 7.11009 23.9975 7.31364L24.2234 7.47996L24.4841 7.37074L28.9845 5.47673L33.0803 12.5538L29.1856 15.5053L28.9522 15.6815L28.9944 15.972C29.0168 16.1333 29.0292 16.2972 29.0292 16.456V17.5681C29.0292 17.7022 29.0068 17.8437 28.9671 17.9926L28.8728 18.3203L29.1434 18.5238L33.0406 21.4728ZM26.6362 18.3749C26.6933 17.9305 26.7231 17.4738 26.7231 17.0121C26.7231 16.5504 26.6933 16.0986 26.6362 15.6518C26.594 15.3216 26.527 14.9964 26.4376 14.6812L30.0494 11.9506L29.8335 11.5708L28.2274 8.76828L28.0065 8.38601L23.8287 10.1559C23.2603 9.60234 22.6347 9.12326 21.9645 8.73105C21.2918 8.33636 20.562 8.02607 19.7925 7.80018L19.301 3.75896L19.2464 3.32207H15.1133L14.5225 7.80018C13.748 8.02607 13.0182 8.33884 12.3505 8.73105C11.6827 9.12077 11.0572 9.58745 10.4887 10.1212L6.71064 8.55729L6.30602 8.38849L6.09006 8.76828L4.48152 11.5708L4.26059 11.9531L4.61556 12.2162L7.87982 14.6464C7.78549 14.9766 7.71847 15.3042 7.67627 15.6294C7.61917 16.0613 7.58938 16.528 7.58938 17.0121C7.58938 17.4961 7.61917 17.9256 7.67627 18.3575C7.71847 18.6802 7.78797 19.0103 7.87982 19.3405L4.26307 22.076L6.09006 25.2583L6.3085 25.6406L6.71312 25.4693L10.4838 23.8682C11.0572 24.4292 11.6852 24.9083 12.3505 25.2956C13.0157 25.6878 13.7455 26.0006 14.52 26.2264L15.014 30.2677L15.0686 30.7021H19.1992L19.79 26.2289C20.562 26.0006 21.2943 25.6878 21.9645 25.2956C22.6323 24.9059 23.2553 24.4392 23.8238 23.9055L27.6043 25.4693L28.009 25.6381L28.2274 25.2583L29.8335 22.4558L30.0494 22.076L26.4376 19.343C26.527 19.0302 26.594 18.705 26.6362 18.3749ZM29.4015 22.2076L27.7955 25.0101L23.7121 23.3197C23.1089 23.9253 22.4411 24.4417 21.7138 24.8661C20.984 25.2931 20.1946 25.6158 19.3407 25.8367L18.7648 30.2056H15.508L14.9718 25.8367C14.1204 25.6158 13.3285 25.2931 12.6012 24.8661C11.8714 24.4417 11.2061 23.9129 10.6004 23.2799L6.5195 25.0101L4.91096 22.2076L8.45571 19.5267C8.31918 19.1146 8.22237 18.7025 8.16776 18.2905C8.11315 17.8784 8.08585 17.4514 8.08585 17.0121C8.08585 16.5454 8.11315 16.106 8.16776 15.694C8.22237 15.2794 8.31918 14.8673 8.45571 14.4553L4.91096 11.8166L6.5195 9.01403L10.6004 10.7045C11.2061 10.0988 11.8714 9.58497 12.6012 9.15801C13.3285 8.73105 14.1204 8.40835 14.9718 8.1899L15.5477 3.81854H18.807L19.3407 8.1899C20.1946 8.40835 20.984 8.73105 21.7138 9.15801C22.4411 9.58497 23.1089 10.1137 23.7121 10.7442L27.7955 9.01403L29.4015 11.8166L25.8568 14.4975C25.9933 14.8822 26.0901 15.2869 26.1447 15.7138C26.1993 16.1408 26.2266 16.5727 26.2266 17.0121C26.2266 17.4514 26.1993 17.8859 26.1447 18.3103C26.0901 18.7373 25.9933 19.1419 25.8568 19.5267L29.4015 22.2076ZM17.2382 11.2456C15.6197 11.2456 14.2519 11.8091 13.1399 12.9336C12.0278 14.0606 11.4717 15.4184 11.4717 17.0121C11.4717 18.6057 12.0278 19.9636 13.1399 21.0905C14.2519 22.215 15.6197 22.7785 17.2382 22.7785C18.8566 22.7785 20.1921 22.215 21.3166 21.0905C22.4411 19.966 23.0046 18.6057 23.0046 17.0121C23.0046 15.4184 22.4436 14.0606 21.3166 12.9336C20.1921 11.8091 18.8318 11.2456 17.2382 11.2456ZM20.9666 20.7405C19.9265 21.7781 18.7077 22.282 17.2382 22.282C15.7686 22.282 14.5175 21.7781 13.4923 20.743C12.4671 19.7029 11.9682 18.4841 11.9682 17.0121C11.9682 15.5401 12.4671 14.3237 13.4923 13.2836C14.5175 12.246 15.7438 11.7421 17.2382 11.7421C18.7325 11.7421 19.9265 12.2485 20.9666 13.2861C22.0042 14.3237 22.5081 15.5425 22.5081 17.0121C22.5081 18.4816 22.0042 19.7029 20.9666 20.7405ZM17.2382 13.8843C16.3669 13.8843 15.6197 14.1946 15.0165 14.8053C14.4158 15.4135 14.1129 16.1557 14.1129 17.0121C14.1129 17.8685 14.4158 18.6157 15.0165 19.2213C15.6197 19.832 16.3669 20.1398 17.2382 20.1398C18.1095 20.1398 18.8417 19.832 19.4499 19.2238C20.0581 18.6206 20.3659 17.8759 20.3659 17.0121C20.3659 16.1482 20.0581 15.411 19.4499 14.8028C18.8417 14.1946 18.097 13.8843 17.2382 13.8843ZM19.0999 18.8713C18.5861 19.3852 17.9655 19.6433 17.2382 19.6433C16.5108 19.6433 15.8779 19.3852 15.369 18.8713C14.8626 18.36 14.6094 17.7394 14.6094 17.0121C14.6094 16.2848 14.8626 15.6667 15.369 15.1528C15.8779 14.639 16.5009 14.3808 17.2382 14.3808C17.9754 14.3808 18.5861 14.639 19.0999 15.1528C19.6137 15.6667 19.8694 16.2848 19.8694 17.0121C19.8694 17.7394 19.6137 18.36 19.0999 18.8713ZM19.4499 14.8028C18.8417 14.1946 18.097 13.8843 17.2382 13.8843C16.3793 13.8843 15.6197 14.1946 15.0165 14.8053C14.4158 15.4135 14.1129 16.1557 14.1129 17.0121C14.1129 17.8685 14.4158 18.6157 15.0165 19.2213C15.6197 19.832 16.3669 20.1398 17.2382 20.1398C18.1095 20.1398 18.8417 19.832 19.4499 19.2238C20.0581 18.6206 20.3659 17.8759 20.3659 17.0121C20.3659 16.1482 20.0581 15.411 19.4499 14.8028ZM19.0999 18.8713C18.5861 19.3852 17.9655 19.6433 17.2382 19.6433C16.5108 19.6433 15.8779 19.3852 15.369 18.8713C14.8626 18.36 14.6094 17.7394 14.6094 17.0121C14.6094 16.2848 14.8626 15.6667 15.369 15.1528C15.8779 14.639 16.5009 14.3808 17.2382 14.3808C17.9754 14.3808 18.5861 14.639 19.0999 15.1528C19.6137 15.6667 19.8694 16.2848 19.8694 17.0121C19.8694 17.7394 19.6137 18.36 19.0999 18.8713ZM19.4499 14.8028C18.8417 14.1946 18.097 13.8843 17.2382 13.8843C16.3793 13.8843 15.6197 14.1946 15.0165 14.8053C14.4158 15.4135 14.1129 16.1557 14.1129 17.0121C14.1129 17.8685 14.4158 18.6157 15.0165 19.2213C15.6197 19.832 16.3669 20.1398 17.2382 20.1398C18.1095 20.1398 18.8417 19.832 19.4499 19.2238C20.0581 18.6206 20.3659 17.8759 20.3659 17.0121C20.3659 16.1482 20.0581 15.411 19.4499 14.8028ZM19.0999 18.8713C18.5861 19.3852 17.9655 19.6433 17.2382 19.6433C16.5108 19.6433 15.8779 19.3852 15.369 18.8713C14.8626 18.36 14.6094 17.7394 14.6094 17.0121C14.6094 16.2848 14.8626 15.6667 15.369 15.1528C15.8779 14.639 16.5009 14.3808 17.2382 14.3808C17.9754 14.3808 18.5861 14.639 19.0999 15.1528C19.6137 15.6667 19.8694 16.2848 19.8694 17.0121C19.8694 17.7394 19.6137 18.36 19.0999 18.8713ZM26.4376 19.343C26.527 19.0302 26.594 18.705 26.6362 18.3749C26.6933 17.9305 26.7231 17.4738 26.7231 17.0121C26.7231 16.5504 26.6933 16.0986 26.6362 15.6518C26.594 15.3216 26.527 14.9964 26.4376 14.6812L30.0494 11.9506L29.8335 11.5708L28.2274 8.76828L28.0065 8.38601L23.8287 10.1559C23.2603 9.60234 22.6347 9.12326 21.9645 8.73105C21.2918 8.33636 20.562 8.02607 19.7925 7.80018L19.301 3.75896L19.2464 3.32207H15.1133L14.5225 7.80018C13.748 8.02607 13.0182 8.33884 12.3505 8.73105C11.6827 9.12077 11.0572 9.58745 10.4887 10.1212L6.71064 8.55729L6.30602 8.38849L6.09006 8.76828L4.48152 11.5708L4.26059 11.9531L4.61556 12.2162L7.87982 14.6464C7.78549 14.9766 7.71847 15.3042 7.67627 15.6294C7.61917 16.0613 7.58938 16.528 7.58938 17.0121C7.58938 17.4961 7.61917 17.9256 7.67627 18.3575C7.71847 18.6802 7.78797 19.0103 7.87982 19.3405L4.26307 22.076L6.09006 25.2583L6.3085 25.6406L6.71312 25.4693L10.4838 23.8682C11.0572 24.4292 11.6852 24.9083 12.3505 25.2956C13.0157 25.6878 13.7455 26.0006 14.52 26.2264L15.014 30.2677L15.0686 30.7021H19.1992L19.79 26.2289C20.562 26.0006 21.2943 25.6878 21.9645 25.2956C22.6323 24.9059 23.2553 24.4392 23.8238 23.9055L27.6043 25.4693L28.009 25.6381L28.2274 25.2583L29.8335 22.4558L30.0494 22.076L26.4376 19.343ZM27.7955 25.0101L23.7121 23.3197C23.1089 23.9253 22.4411 24.4417 21.7138 24.8661C20.984 25.2931 20.1946 25.6158 19.3407 25.8367L18.7648 30.2056H15.508L14.9718 25.8367C14.1204 25.6158 13.3285 25.2931 12.6012 24.8661C11.8714 24.4417 11.2061 23.9129 10.6004 23.2799L6.5195 25.0101L4.91096 22.2076L8.45571 19.5267C8.31918 19.1146 8.22237 18.7025 8.16776 18.2905C8.11315 17.8784 8.08585 17.4514 8.08585 17.0121C8.08585 16.5454 8.11315 16.106 8.16776 15.694C8.22237 15.2794 8.31918 14.8673 8.45571 14.4553L4.91096 11.8166L6.5195 9.01403L10.6004 10.7045C11.2061 10.0988 11.8714 9.58497 12.6012 9.15801C13.3285 8.73105 14.1204 8.40835 14.9718 8.1899L15.5477 3.81854H18.807L19.3407 8.1899C20.1946 8.40835 20.984 8.73105 21.7138 9.15801C22.4411 9.58497 23.1089 10.1137 23.7121 10.7442L27.7955 9.01403L29.4015 11.8166L25.8568 14.4975C25.9933 14.8822 26.0901 15.2869 26.1447 15.7138C26.1993 16.1408 26.2266 16.5727 26.2266 17.0121C26.2266 17.4514 26.1993 17.8859 26.1447 18.3103C26.0901 18.7373 25.9933 19.1419 25.8568 19.5267L29.4015 22.2076L27.7955 25.0101ZM17.2382 11.2456C15.6197 11.2456 14.2519 11.8091 13.1399 12.9336C12.0278 14.0606 11.4717 15.4184 11.4717 17.0121C11.4717 18.6057 12.0278 19.9636 13.1399 21.0905C14.2519 22.215 15.6197 22.7785 17.2382 22.7785C18.8566 22.7785 20.1921 22.215 21.3166 21.0905C22.4411 19.966 23.0046 18.6057 23.0046 17.0121C23.0046 15.4184 22.4436 14.0606 21.3166 12.9336C20.1921 11.8091 18.8318 11.2456 17.2382 11.2456ZM20.9666 20.7405C19.9265 21.7781 18.7077 22.282 17.2382 22.282C15.7686 22.282 14.5175 21.7781 13.4923 20.743C12.4671 19.7029 11.9682 18.4841 11.9682 17.0121C11.9682 15.5401 12.4671 14.3237 13.4923 13.2836C14.5175 12.246 15.7438 11.7421 17.2382 11.7421C18.7325 11.7421 19.9265 12.2485 20.9666 13.2861C22.0042 14.3237 22.5081 15.5425 22.5081 17.0121C22.5081 18.4816 22.0042 19.7029 20.9666 20.7405ZM17.2382 13.8843C16.3669 13.8843 15.6197 14.1946 15.0165 14.8053C14.4158 15.4135 14.1129 16.1557 14.1129 17.0121C14.1129 17.8685 14.4158 18.6157 15.0165 19.2213C15.6197 19.832 16.3669 20.1398 17.2382 20.1398C18.1095 20.1398 18.8417 19.832 19.4499 19.2238C20.0581 18.6206 20.3659 17.8759 20.3659 17.0121C20.3659 16.1482 20.0581 15.411 19.4499 14.8028C18.8417 14.1946 18.097 13.8843 17.2382 13.8843ZM19.0999 18.8713C18.5861 19.3852 17.9655 19.6433 17.2382 19.6433C16.5108 19.6433 15.8779 19.3852 15.369 18.8713C14.8626 18.36 14.6094 17.7394 14.6094 17.0121C14.6094 16.2848 14.8626 15.6667 15.369 15.1528C15.8779 14.639 16.5009 14.3808 17.2382 14.3808C17.9754 14.3808 18.5861 14.639 19.0999 15.1528C19.6137 15.6667 19.8694 16.2848 19.8694 17.0121C19.8694 17.7394 19.6137 18.36 19.0999 18.8713ZM26.4376 19.343C26.527 19.0302 26.594 18.705 26.6362 18.3749C26.6933 17.9305 26.7231 17.4738 26.7231 17.0121C26.7231 16.5504 26.6933 16.0986 26.6362 15.6518C26.594 15.3216 26.527 14.9964 26.4376 14.6812L30.0494 11.9506L29.8335 11.5708L28.2274 8.76828L28.0065 8.38601L23.8287 10.1559C23.2603 9.60234 22.6347 9.12326 21.9645 8.73105C21.2918 8.33636 20.562 8.02607 19.7925 7.80018L19.301 3.75896L19.2464 3.32207H15.1133L14.5225 7.80018C13.748 8.02607 13.0182 8.33884 12.3505 8.73105C11.6827 9.12077 11.0572 9.58745 10.4887 10.1212L6.71064 8.55729L6.30602 8.38849L6.09006 8.76828L4.48152 11.5708L4.26059 11.9531L4.61556 12.2162L7.87982 14.6464C7.78549 14.9766 7.71847 15.3042 7.67627 15.6294C7.61917 16.0613 7.58938 16.528 7.58938 17.0121C7.58938 17.4961 7.61917 17.9256 7.67627 18.3575C7.71847 18.6802 7.78797 19.0103 7.87982 19.3405L4.26307 22.076L6.09006 25.2583L6.3085 25.6406L6.71312 25.4693L10.4838 23.8682C11.0572 24.4292 11.6852 24.9083 12.3505 25.2956C13.0157 25.6878 13.7455 26.0006 14.52 26.2264L15.014 30.2677L15.0686 30.7021H19.1992L19.79 26.2289C20.562 26.0006 21.2943 25.6878 21.9645 25.2956C22.6323 24.9059 23.2553 24.4392 23.8238 23.9055L27.6043 25.4693L28.009 25.6381L28.2274 25.2583L29.8335 22.4558L30.0494 22.076L26.4376 19.343ZM27.7955 25.0101L23.7121 23.3197C23.1089 23.9253 22.4411 24.4417 21.7138 24.8661C20.984 25.2931 20.1946 25.6158 19.3407 25.8367L18.7648 30.2056H15.508L14.9718 25.8367C14.1204 25.6158 13.3285 25.2931 12.6012 24.8661C11.8714 24.4417 11.2061 23.9129 10.6004 23.2799L6.5195 25.0101L4.91096 22.2076L8.45571 19.5267C8.31918 19.1146 8.22237 18.7025 8.16776 18.2905C8.11315 17.8784 8.08585 17.4514 8.08585 17.0121C8.08585 16.5454 8.11315 16.106 8.16776 15.694C8.22237 15.2794 8.31918 14.8673 8.45571 14.4553L4.91096 11.8166L6.5195 9.01403L10.6004 10.7045C11.2061 10.0988 11.8714 9.58497 12.6012 9.15801C13.3285 8.73105 14.1204 8.40835 14.9718 8.1899L15.5477 3.81854H18.807L19.3407 8.1899C20.1946 8.40835 20.984 8.73105 21.7138 9.15801C22.4411 9.58497 23.1089 10.1137 23.7121 10.7442L27.7955 9.01403L29.4015 11.8166L25.8568 14.4975C25.9933 14.8822 26.0901 15.2869 26.1447 15.7138C26.1993 16.1408 26.2266 16.5727 26.2266 17.0121C26.2266 17.4514 26.1993 17.8859 26.1447 18.3103C26.0901 18.7373 25.9933 19.1419 25.8568 19.5267L29.4015 22.2076L27.7955 25.0101ZM17.2382 11.2456C15.6197 11.2456 14.2519 11.8091 13.1399 12.9336C12.0278 14.0606 11.4717 15.4184 11.4717 17.0121C11.4717 18.6057 12.0278 19.9636 13.1399 21.0905C14.2519 22.215 15.6197 22.7785 17.2382 22.7785C18.8566 22.7785 20.1921 22.215 21.3166 21.0905C22.4411 19.966 23.0046 18.6057 23.0046 17.0121C23.0046 15.4184 22.4436 14.0606 21.3166 12.9336C20.1921 11.8091 18.8318 11.2456 17.2382 11.2456ZM20.9666 20.7405C19.9265 21.7781 18.7077 22.282 17.2382 22.282C15.7686 22.282 14.5175 21.7781 13.4923 20.743C12.4671 19.7029 11.9682 18.4841 11.9682 17.0121C11.9682 15.5401 12.4671 14.3237 13.4923 13.2836C14.5175 12.246 15.7438 11.7421 17.2382 11.7421C18.7325 11.7421 19.9265 12.2485 20.9666 13.2861C22.0042 14.3237 22.5081 15.5425 22.5081 17.0121C22.5081 18.4816 22.0042 19.7029 20.9666 20.7405ZM17.2382 13.8843C16.3669 13.8843 15.6197 14.1946 15.0165 14.8053C14.4158 15.4135 14.1129 16.1557 14.1129 17.0121C14.1129 17.8685 14.4158 18.6157 15.0165 19.2213C15.6197 19.832 16.3669 20.1398 17.2382 20.1398C18.1095 20.1398 18.8417 19.832 19.4499 19.2238C20.0581 18.6206 20.3659 17.8759 20.3659 17.0121C20.3659 16.1482 20.0581 15.411 19.4499 14.8028C18.8417 14.1946 18.097 13.8843 17.2382 13.8843ZM19.0999 18.8713C18.5861 19.3852 17.9655 19.6433 17.2382 19.6433C16.5108 19.6433 15.8779 19.3852 15.369 18.8713C14.8626 18.36 14.6094 17.7394 14.6094 17.0121C14.6094 16.2848 14.8626 15.6667 15.369 15.1528C15.8779 14.639 16.5009 14.3808 17.2382 14.3808C17.9754 14.3808 18.5861 14.639 19.0999 15.1528C19.6137 15.6667 19.8694 16.2848 19.8694 17.0121C19.8694 17.7394 19.6137 18.36 19.0999 18.8713Z" fill="#939393"/>
</svg>
