<svg width="33" height="30" viewBox="0 0 33 30" fill="none" xmlns="http://www.w3.org/2000/svg">
<path d="M16.6804 1.44827C18.7541 1.44827 20.4803 2.16656 21.9586 3.64252C23.416 5.09994 24.1529 6.8748 24.1529 8.92076C24.1529 10.9667 23.4137 12.7393 21.9586 14.1967C21.7014 14.4539 21.4326 14.6925 21.1592 14.9011L20.4757 15.427L21.2913 15.7074C21.3539 15.7282 27.6493 17.8831 29.1646 18.6408C30.0451 19.0949 30.7588 19.7645 31.2894 20.6288C31.8269 21.507 32.0888 22.4431 32.0888 23.488V28.5786H1.272V23.488C1.272 22.4431 1.53383 21.507 2.07139 20.6311C2.61126 19.753 3.30637 19.1019 4.18917 18.6454C5.57245 17.9526 8.89278 16.7524 10.6769 16.1082C11.7126 15.7329 11.9443 15.6495 12.0347 15.6008L12.6557 15.2695L12.1065 14.8292C11.8586 14.63 11.6199 14.4191 11.3998 14.199C9.9424 12.7439 9.20558 10.969 9.20558 8.92539C9.20558 6.88175 9.94472 5.10226 11.4021 3.64715C12.8572 2.18973 14.6321 1.45291 16.6781 1.45291M16.6804 12.2434C17.5887 12.2434 18.3765 11.9144 19.0229 11.2679C19.6694 10.6215 19.9984 9.83367 19.9984 8.92539C19.9984 8.01711 19.6694 7.22699 19.0229 6.58054C18.3765 5.93408 17.5887 5.60506 16.6804 5.60506C15.7721 5.60506 14.982 5.93408 14.3355 6.57822C13.6868 7.22468 13.3577 8.01479 13.3577 8.92539C13.3577 9.83599 13.6868 10.6238 14.3355 11.2679C14.982 11.9144 15.7721 12.2434 16.6804 12.2434ZM4.3699 25.5363H28.9932L29.0442 25.1308C29.0534 25.059 29.2481 23.3768 27.7721 21.6993C25.8489 19.5143 22.1162 18.4044 16.6781 18.4044C11.2399 18.4044 7.5095 19.512 5.58635 21.6993C4.11039 23.3768 4.30734 25.059 4.31661 25.1308L4.36758 25.5363M16.6804 0.984863C14.4977 0.984863 12.6279 1.76107 11.0754 3.31581C9.5207 4.86824 8.74449 6.7381 8.74449 8.92076C8.74449 11.1034 9.5207 12.971 11.0754 14.5234C11.3164 14.7644 11.5643 14.9845 11.8192 15.1884C11.5713 15.3204 5.94781 17.2459 3.98295 18.2283C3.02369 18.7242 2.25675 19.4425 1.67749 20.3855C1.09822 21.3286 0.808594 22.3596 0.808594 23.4857V29.0397H32.5522V23.4857C32.5522 22.3596 32.2625 21.3286 31.6856 20.3855C31.1063 19.4425 30.3371 18.7242 29.3778 18.2283C27.8115 17.4452 21.4419 15.2672 21.4419 15.2672C21.7339 15.0424 22.0142 14.7945 22.2853 14.5234C23.8377 12.971 24.6163 11.1011 24.6163 8.92076C24.6163 6.74041 23.8377 4.86824 22.2853 3.31581C20.7306 1.76107 18.863 0.984863 16.6804 0.984863ZM16.6827 11.7754C15.8949 11.7754 15.223 11.495 14.6645 10.9366C14.1038 10.3782 13.8235 9.70624 13.8235 8.92076C13.8235 8.13528 14.1038 7.46102 14.6645 6.90261C15.223 6.3442 15.8949 6.06384 16.6827 6.06384C17.4705 6.06384 18.1401 6.3442 18.6985 6.90261C19.2569 7.46102 19.5373 8.13528 19.5373 8.92076C19.5373 9.70624 19.2569 10.3782 18.6985 10.9366C18.1401 11.495 17.4682 11.7754 16.6827 11.7754ZM4.7777 25.0729C4.7777 25.0729 3.98295 18.8702 16.6804 18.8702C29.3778 18.8702 28.5854 25.0729 28.5854 25.0729H4.7777Z" fill="#939393"/>
</svg>
