<svg width="33" height="29" viewBox="0 0 33 29" fill="none" xmlns="http://www.w3.org/2000/svg">
<path d="M31.8587 19.6529C31.2794 18.7099 30.5102 17.9916 29.5509 17.4958C27.9846 16.7126 21.6151 14.5346 21.6151 14.5346C21.907 14.3099 22.1874 14.0619 22.4585 13.7908C24.0109 12.2384 24.7894 10.3686 24.7894 8.18827C24.7894 6.00794 24.0109 4.13578 22.4585 2.58337C20.9037 1.02865 19.0362 0.252441 16.8536 0.252441C14.6709 0.252441 12.8011 1.02865 11.2487 2.58337C9.69396 4.13578 8.91776 6.00562 8.91776 8.18827C8.91776 10.3709 9.69396 12.2384 11.2487 13.7908C11.4897 14.0318 11.7376 14.2519 11.9925 14.4558C11.7445 14.5879 6.1211 16.5134 4.15626 17.4958C3.19701 17.9916 2.43008 18.7099 1.85082 19.6529C1.27156 20.596 0.981934 21.627 0.981934 22.7531V28.307H32.7252V22.7531C32.7252 21.627 32.4356 20.596 31.8587 19.6529ZM14.8378 6.17014C15.3962 5.61173 16.0681 5.33137 16.8559 5.33137C17.6437 5.33137 18.3133 5.61173 18.8717 6.17014C19.4301 6.72854 19.7105 7.40279 19.7105 8.18827C19.7105 8.97374 19.4301 9.64568 18.8717 10.2041C18.3133 10.7625 17.6414 11.0428 16.8559 11.0428C16.0704 11.0428 15.3962 10.7625 14.8378 10.2041C14.277 9.64568 13.9967 8.97374 13.9967 8.18827C13.9967 7.40279 14.277 6.72854 14.8378 6.17014ZM4.951 24.3403C4.951 24.3403 4.15626 18.1376 16.8536 18.1376C29.5509 18.1376 28.7585 24.3403 28.7585 24.3403H4.951Z" fill="#00FFF0"/>
</svg>
