<svg width="23" height="25" viewBox="0 0 23 25" fill="none" xmlns="http://www.w3.org/2000/svg">
<path fill-rule="evenodd" clip-rule="evenodd" d="M8.66372 1.32177L7.87 3.37034L5.13743 4.92006L2.96029 4.58749C2.5972 4.53793 2.22759 4.59755 1.89849 4.75873C1.5694 4.91992 1.29572 5.1754 1.11229 5.49263L0.375144 6.7852C0.185868 7.10707 0.0986344 7.47877 0.124955 7.85123C0.151276 8.2237 0.289913 8.57943 0.522572 8.87149L1.906 10.5875V13.6903L0.560287 15.4063C0.327628 15.6984 0.18899 16.0541 0.162669 16.4266C0.136349 16.7991 0.223582 17.1708 0.412858 17.4926L1.15 18.7852C1.33343 19.1024 1.60712 19.3579 1.93621 19.5191C2.2653 19.6803 2.63492 19.7399 2.998 19.6903L5.17514 19.3578L7.87172 20.9075L8.66543 22.9578C8.79902 23.3044 9.03415 23.6026 9.34002 23.8133C9.64589 24.024 10.0083 24.1375 10.3797 24.1389H11.9311C12.3034 24.1381 12.6666 24.0247 12.9732 23.8136C13.2798 23.6024 13.5153 23.3035 13.6489 22.9561L14.4426 20.9075L17.1374 19.3578L19.3146 19.6903C19.6777 19.7399 20.0473 19.6803 20.3764 19.5191C20.7055 19.3579 20.9791 19.1024 21.1626 18.7852L21.8997 17.4926C22.089 17.1708 22.1762 16.7991 22.1499 16.4266C22.1236 16.0541 21.9849 15.6984 21.7523 15.4063L20.3689 13.6903V10.5875L21.7163 8.87149C21.9489 8.57943 22.0876 8.2237 22.1139 7.85123C22.1402 7.47877 22.053 7.10707 21.8637 6.7852L21.1266 5.49263C20.9433 5.17524 20.6697 4.91963 20.3405 4.75842C20.0114 4.59721 19.6417 4.5377 19.2786 4.58749L17.1014 4.92006L14.4049 3.37034L13.6111 1.32006C13.4772 0.973331 13.2418 0.67509 12.9356 0.464351C12.6295 0.253612 12.2668 0.140187 11.8951 0.138916H10.3797C10.0078 0.140321 9.64504 0.253997 9.33885 0.465058C9.03266 0.676118 8.79734 0.974724 8.66372 1.32177ZM11.1374 15.9961C12.1604 15.9961 13.1415 15.5897 13.8648 14.8663C14.5882 14.143 14.9946 13.1619 14.9946 12.1389C14.9946 11.1159 14.5882 10.1349 13.8648 9.4115C13.1415 8.68815 12.1604 8.28177 11.1374 8.28177C10.1145 8.28177 9.13337 8.68815 8.41002 9.4115C7.68666 10.1349 7.28029 11.1159 7.28029 12.1389C7.28029 13.1619 7.68666 14.143 8.41002 14.8663C9.13337 15.5897 10.1145 15.9961 11.1374 15.9961Z" fill="#00FFF0"/>
</svg>
