<svg width="19" height="20" viewBox="0 0 19 20" fill="none" xmlns="http://www.w3.org/2000/svg">
<path d="M7.87119 8.16157C8.35709 8.16157 8.77022 7.99138 9.11059 7.651C9.45097 7.31063 9.62117 6.8975 9.62117 6.4116C9.62117 5.9257 9.45097 5.51256 9.11059 5.1722C8.77022 4.83181 8.35709 4.66162 7.87119 4.66162C7.38529 4.66162 6.97216 4.83181 6.63179 5.1722C6.29141 5.51256 6.12122 5.9257 6.12122 6.4116C6.12122 6.8975 6.29141 7.31063 6.63179 7.651C6.97216 7.99138 7.38529 8.16157 7.87119 8.16157ZM7.88082 12.1616C8.53465 12.1616 9.15547 12.0305 9.74329 11.7683C10.3311 11.5061 10.8507 11.1315 11.3019 10.6443C10.7507 10.3187 10.1878 10.0735 9.61349 9.90872C9.03912 9.74399 8.46157 9.66162 7.88082 9.66162C7.23595 9.66162 6.61992 9.7456 6.03274 9.91355C5.44556 10.0815 4.918 10.3251 4.45007 10.6443C4.89493 11.1315 5.41127 11.5061 5.99909 11.7683C6.58691 12.0305 7.21415 12.1616 7.88082 12.1616ZM17.7597 19.3635L12.7808 14.3846C12.0718 14.95 11.3161 15.3875 10.5135 15.6971C9.71094 16.0068 8.83017 16.1616 7.87119 16.1616C5.70837 16.1616 3.87601 15.4106 2.37409 13.9087C0.872174 12.4068 0.121216 10.5744 0.121216 8.4116C0.121216 6.24878 0.872174 4.41641 2.37409 2.9145C3.87601 1.41258 5.70837 0.661621 7.87119 0.661621C10.034 0.661621 11.8664 1.41258 13.3683 2.9145C14.8702 4.41641 15.6212 6.24878 15.6212 8.4116C15.6212 9.37058 15.4648 10.253 15.1519 11.0587C14.8391 11.8645 14.4 12.6219 13.8346 13.3308L18.8135 18.3001L17.7597 19.3635Z" fill="#00FFF0"/>
</svg>
