<svg width="15" height="20" viewBox="0 0 15 20" fill="none" xmlns="http://www.w3.org/2000/svg">
<path d="M7.16088 12.2056C6.33551 12.2056 5.63395 11.9167 5.05619 11.339C4.47843 10.7612 4.18955 10.0597 4.18955 9.2343V3.29164C4.18955 2.46627 4.47843 1.76471 5.05619 1.18695C5.63395 0.609192 6.33551 0.320312 7.16088 0.320312C7.98625 0.320312 8.68781 0.609192 9.26557 1.18695C9.84333 1.76471 10.1322 2.46627 10.1322 3.29164V9.2343C10.1322 10.0597 9.84333 10.7612 9.26557 11.339C8.68781 11.9167 7.98625 12.2056 7.16088 12.2056ZM6.17044 19.1387V16.0931C4.45367 15.862 3.03404 15.0944 1.91154 13.7903C0.789034 12.4862 0.227783 10.9676 0.227783 9.2343H2.20867C2.20867 10.6044 2.69151 11.7723 3.65719 12.738C4.62287 13.7037 5.79077 14.1865 7.16088 14.1865C8.53099 14.1865 9.69889 13.7037 10.6646 12.738C11.6303 11.7723 12.1131 10.6044 12.1131 9.2343H14.094C14.094 10.9676 13.5327 12.4862 12.4102 13.7903C11.2877 15.0944 9.86809 15.862 8.15132 16.0931V19.1387H6.17044ZM7.16088 10.2247C7.44151 10.2247 7.67674 10.1298 7.86657 9.93999C8.05641 9.75015 8.15132 9.51492 8.15132 9.2343V3.29164C8.15132 3.01101 8.05641 2.77578 7.86657 2.58595C7.67674 2.39612 7.44151 2.3012 7.16088 2.3012C6.88026 2.3012 6.64503 2.39612 6.45519 2.58595C6.26536 2.77578 6.17044 3.01101 6.17044 3.29164V9.2343C6.17044 9.51492 6.26536 9.75015 6.45519 9.93999C6.64503 10.1298 6.88026 10.2247 7.16088 10.2247Z" fill="#FFE70F"/>
</svg>
