<svg width="21" height="20" viewBox="0 0 21 20" fill="none" xmlns="http://www.w3.org/2000/svg">
<path d="M5.8354 17.9257V7.00612C5.8354 6.46138 6.03349 5.99918 6.42967 5.61951C6.82584 5.23984 7.2963 5.05 7.84104 5.05H18.7111C19.2559 5.05 19.7222 5.24397 20.1101 5.63189C20.498 6.01981 20.692 6.48614 20.692 7.03088V14.9544L15.7398 19.9066H7.81628C7.27154 19.9066 6.80521 19.7126 6.41729 19.3247C6.02937 18.9368 5.8354 18.4705 5.8354 17.9257ZM0.90797 4.30718C0.808926 3.76243 0.916224 3.27134 1.22986 2.8339C1.5435 2.39645 1.97269 2.12821 2.51743 2.02917L13.2637 0.12257C13.8084 0.023526 14.2995 0.130824 14.737 0.444463C15.1744 0.758102 15.4427 1.18729 15.5417 1.73203L15.7893 3.06913H13.7589L13.5856 2.07869L2.86409 3.98528L3.85453 9.58126V16.4896C3.59041 16.341 3.36343 16.1429 3.1736 15.8953C2.98377 15.6477 2.86409 15.3671 2.81457 15.0534L0.90797 4.30718ZM7.81628 7.03088V17.9257H14.7494L18.7111 13.964V7.03088H7.81628ZM12.2733 16.4401H14.2541V13.4687H17.2255V11.4879H14.2541V8.51654H12.2733V11.4879H9.30194V13.4687H12.2733V16.4401Z" fill="#00FFF0"/>
</svg>
