<svg width="21" height="21" viewBox="0 0 21 21" fill="none" xmlns="http://www.w3.org/2000/svg">
<path d="M5.16182 18.6581V7.73854C5.16182 7.1938 5.35991 6.7316 5.75608 6.35193C6.15226 5.97226 6.62272 5.78243 7.16746 5.78243H18.0375C18.5823 5.78243 19.0486 5.97639 19.4365 6.36431C19.8244 6.75223 20.0184 7.21856 20.0184 7.7633V15.6868L15.0662 20.639H7.1427C6.59796 20.639 6.13163 20.4451 5.7437 20.0571C5.35578 19.6692 5.16182 19.2029 5.16182 18.6581ZM0.234386 5.0396C0.135342 4.49486 0.24264 4.00376 0.556279 3.56632C0.869918 3.12888 1.29911 2.86063 1.84385 2.76159L12.5901 0.854992C13.1349 0.755948 13.6259 0.863245 14.0634 1.17688C14.5008 1.49052 14.7691 1.91971 14.8681 2.46446L15.1157 3.80155H13.0853L12.912 2.81111L2.1905 4.7177L3.18094 10.3137V17.222C2.91683 17.0734 2.68985 16.8753 2.50002 16.6277C2.31018 16.3801 2.1905 16.0995 2.14098 15.7859L0.234386 5.0396ZM7.1427 7.7633V18.6581H14.0758L18.0375 14.6964V7.7633H7.1427ZM11.5997 17.1725H13.5806V14.2012H16.5519V12.2203H13.5806V9.24896H11.5997V12.2203H8.62836V14.2012H11.5997V17.1725Z" fill="#FFE70F"/>
</svg>
