<svg width="21" height="21" viewBox="0 0 21 21" fill="none" xmlns="http://www.w3.org/2000/svg">
<path d="M5.8354 18.6706V7.75099C5.8354 7.20625 6.03349 6.74405 6.42967 6.36438C6.82584 5.98471 7.2963 5.79488 7.84104 5.79488H18.7111C19.2559 5.79488 19.7222 5.98884 20.1101 6.37676C20.498 6.76468 20.692 7.23101 20.692 7.77576V15.6993L15.7398 20.6515H7.81628C7.27154 20.6515 6.80521 20.4575 6.41729 20.0696C6.02937 19.6817 5.8354 19.2153 5.8354 18.6706ZM0.90797 5.05205C0.808926 4.50731 0.916224 4.01621 1.22986 3.57877C1.5435 3.14133 1.97269 2.87308 2.51743 2.77404L13.2637 0.867443C13.8084 0.768399 14.2995 0.875697 14.737 1.18934C15.1744 1.50297 15.4427 1.93217 15.5417 2.47691L15.7893 3.814H13.7589L13.5856 2.82356L2.86409 4.73016L3.85453 10.3261V17.2344C3.59041 17.0859 3.36343 16.8878 3.1736 16.6402C2.98377 16.3926 2.86409 16.112 2.81457 15.7983L0.90797 5.05205ZM7.81628 7.77576V18.6706H14.7494L18.7111 14.7088V7.77576H7.81628ZM12.2733 17.1849H14.2541V14.2136H17.2255V12.2327H14.2541V9.26141H12.2733V12.2327H9.30194V14.2136H12.2733V17.1849Z" fill="#FF5C00"/>
</svg>
