<svg width="19" height="19" viewBox="0 0 19 19" fill="none" xmlns="http://www.w3.org/2000/svg">
<path d="M17.4463 18.3049C15.363 18.3049 13.3047 17.8508 11.2713 16.9424C9.238 16.0341 7.388 14.7466 5.72134 13.0799C4.05467 11.4133 2.76717 9.56326 1.85884 7.52993C0.950505 5.4966 0.496338 3.43827 0.496338 1.35493C0.496338 1.05493 0.596338 0.804932 0.796338 0.604932C0.996338 0.404932 1.24634 0.304932 1.54634 0.304932H5.59634C5.82967 0.304932 6.038 0.384098 6.22134 0.542432C6.40467 0.700765 6.513 0.888265 6.54634 1.10493L7.19634 4.60493C7.22967 4.8716 7.22134 5.0966 7.17134 5.27993C7.12134 5.46326 7.02967 5.6216 6.89634 5.75493L4.47134 8.20493C4.80467 8.8216 5.2005 9.41743 5.65884 9.99243C6.11717 10.5674 6.62134 11.1216 7.17134 11.6549C7.688 12.1716 8.22967 12.6508 8.79634 13.0924C9.363 13.5341 9.96301 13.9383 10.5963 14.3049L12.9463 11.9549C13.0963 11.8049 13.2922 11.6924 13.5338 11.6174C13.7755 11.5424 14.013 11.5216 14.2463 11.5549L17.6963 12.2549C17.9297 12.3216 18.1213 12.4424 18.2713 12.6174C18.4213 12.7924 18.4963 12.9883 18.4963 13.2049V17.2549C18.4963 17.5549 18.3963 17.8049 18.1963 18.0049C17.9963 18.2049 17.7463 18.3049 17.4463 18.3049ZM3.52134 6.30493L5.17134 4.65493L4.74634 2.30493H2.52134C2.60467 2.98827 2.72134 3.66326 2.87134 4.32993C3.02134 4.9966 3.238 5.65493 3.52134 6.30493ZM12.4713 15.2549C13.1213 15.5383 13.7838 15.7633 14.4588 15.9299C15.1338 16.0966 15.813 16.2049 16.4963 16.2549V14.0549L14.1463 13.5799L12.4713 15.2549Z" fill="#FF5C00"/>
</svg>
