<svg width="19" height="19" viewBox="0 0 19 19" fill="none" xmlns="http://www.w3.org/2000/svg">
<path d="M17.4463 18.5596C15.363 18.5596 13.3047 18.1054 11.2713 17.1971C9.238 16.2887 7.388 15.0012 5.72134 13.3346C4.05467 11.6679 2.76717 9.8179 1.85884 7.78457C0.950505 5.75124 0.496338 3.6929 0.496338 1.60957C0.496338 1.30957 0.596338 1.05957 0.796338 0.85957C0.996338 0.65957 1.24634 0.55957 1.54634 0.55957H5.59634C5.82967 0.55957 6.038 0.638737 6.22134 0.79707C6.40467 0.955404 6.513 1.1429 6.54634 1.35957L7.19634 4.85957C7.22967 5.12624 7.22134 5.35124 7.17134 5.53457C7.12134 5.7179 7.02967 5.87624 6.89634 6.00957L4.47134 8.45957C4.80467 9.07624 5.2005 9.67207 5.65884 10.2471C6.11717 10.8221 6.62134 11.3762 7.17134 11.9096C7.688 12.4262 8.22967 12.9054 8.79634 13.3471C9.363 13.7887 9.96301 14.1929 10.5963 14.5596L12.9463 12.2096C13.0963 12.0596 13.2922 11.9471 13.5338 11.8721C13.7755 11.7971 14.013 11.7762 14.2463 11.8096L17.6963 12.5096C17.9297 12.5762 18.1213 12.6971 18.2713 12.8721C18.4213 13.0471 18.4963 13.2429 18.4963 13.4596V17.5096C18.4963 17.8096 18.3963 18.0596 18.1963 18.2596C17.9963 18.4596 17.7463 18.5596 17.4463 18.5596ZM3.52134 6.55957L5.17134 4.90957L4.74634 2.55957H2.52134C2.60467 3.2429 2.72134 3.9179 2.87134 4.58457C3.02134 5.25124 3.238 5.90957 3.52134 6.55957ZM12.4713 15.5096C13.1213 15.7929 13.7838 16.0179 14.4588 16.1846C15.1338 16.3512 15.813 16.4596 16.4963 16.5096V14.3096L14.1463 13.8346L12.4713 15.5096Z" fill="#00FFF0"/>
</svg>
