<svg width="25" height="25" viewBox="0 0 25 25" fill="none" xmlns="http://www.w3.org/2000/svg">
<path d="M24.0589 10.9513C24.0407 10.8341 24.0225 10.7249 24.0064 10.6339C23.412 7.42983 21.7483 4.82814 19.0597 2.89961C17.5213 1.79586 15.7121 1.08226 13.824 0.839678C10.4501 0.403029 7.40363 1.21568 4.77161 3.25539C2.33972 5.13743 0.825603 7.66029 0.267664 10.7512L0.251492 10.8502C0.15648 11.4183 0.109985 12.0207 0.109985 12.6373V12.8111C0.109985 13.3812 0.154459 13.9593 0.241384 14.5274L0.247449 14.5678C0.653774 17.1877 1.81817 19.4538 3.71031 21.3177C5.42052 23.0016 7.49662 24.0912 9.88606 24.5562C11.6165 24.7745 12.89 24.7805 14.2788 24.5784C16.5672 24.1741 18.6008 23.1633 20.3171 21.5785C22.3123 19.7348 23.5637 17.4283 24.0387 14.7235L24.0529 14.6386C24.1459 14.0624 24.1924 13.456 24.1924 12.8354V12.71C24.1924 12.1137 24.1479 11.5214 24.0589 10.9513ZM18.7888 19.3568C17.0119 21.1317 14.6568 22.1101 12.1562 22.1142H12.1441C9.65358 22.1142 7.30458 21.1398 5.52968 19.371C3.75276 17.5981 2.77031 15.2471 2.76828 12.7525C2.7602 7.59156 6.96698 3.38679 12.1461 3.37871H12.1603C14.6508 3.37871 16.9998 4.35308 18.7727 6.12191C20.5516 7.89276 21.532 10.2438 21.5361 12.7404C21.5401 15.2329 20.5637 17.5819 18.7888 19.3568Z" fill="#44FFF4"/>
<path d="M18.055 11.4122V14.0645H13.4884V18.6392H10.8301V14.0806H6.24732V11.4284H10.8139V6.84966H13.4743V11.4122H18.055Z" fill="#44FFF4"/>
</svg>
