<svg width="21" height="17" viewBox="0 0 21 17" fill="none" xmlns="http://www.w3.org/2000/svg">
<path d="M2.58879 16.6649C2.04405 16.6649 1.57772 16.4709 1.18979 16.083C0.801871 15.6951 0.60791 15.2288 0.60791 14.684V2.79875C0.60791 2.25401 0.801871 1.78768 1.18979 1.39975C1.57772 1.01183 2.04405 0.817871 2.58879 0.817871H14.4741C15.0188 0.817871 15.4851 1.01183 15.8731 1.39975C16.261 1.78768 16.4549 2.25401 16.4549 2.79875V7.25573L20.4167 3.29397V14.1888L16.4549 10.227V14.684C16.4549 15.2288 16.261 15.6951 15.8731 16.083C15.4851 16.4709 15.0188 16.6649 14.4741 16.6649H2.58879ZM2.58879 14.684H14.4741V2.79875H2.58879V14.684Z" fill="#FF5C00"/>
</svg>
