<svg width="21" height="16" viewBox="0 0 21 16" fill="none" xmlns="http://www.w3.org/2000/svg">
<path d="M2.58879 15.9198C2.04405 15.9198 1.57772 15.7258 1.18979 15.3379C0.801871 14.95 0.60791 14.4837 0.60791 13.9389V2.05363C0.60791 1.50889 0.801871 1.04256 1.18979 0.654637C1.57772 0.266715 2.04405 0.0727539 2.58879 0.0727539H14.4741C15.0188 0.0727539 15.4851 0.266715 15.8731 0.654637C16.261 1.04256 16.4549 1.50889 16.4549 2.05363V6.51061L20.4167 2.54885V13.4437L16.4549 9.48193V13.9389C16.4549 14.4837 16.261 14.95 15.8731 15.3379C15.4851 15.7258 15.0188 15.9198 14.4741 15.9198H2.58879ZM2.58879 13.9389H14.4741V2.05363H2.58879V13.9389Z" fill="#00FFF0"/>
</svg>
