<svg width="20" height="20" viewBox="0 0 20 20" fill="none" xmlns="http://www.w3.org/2000/svg">
<path d="M10.3138 19.979C8.99985 19.979 7.76482 19.7296 6.60868 19.231C5.45253 18.7323 4.44685 18.0555 3.59163 17.2007C2.7364 16.3459 2.05934 15.3406 1.56046 14.185C1.06158 13.0294 0.812134 11.7946 0.812134 10.4807C0.812134 9.16672 1.06147 7.93169 1.56013 6.77555C2.0588 5.6194 2.73555 4.61372 3.59038 3.75851C4.44523 2.90327 5.45048 2.22621 6.60611 1.72733C7.76173 1.22845 8.9965 0.979004 10.3104 0.979004C11.6244 0.979004 12.8594 1.22834 14.0155 1.72701C15.1717 2.22567 16.1774 2.90242 17.0326 3.75725C17.8878 4.6121 18.5649 5.61735 19.0638 6.77298C19.5626 7.9286 19.8121 9.16337 19.8121 10.4773C19.8121 11.7912 19.5628 13.0263 19.0641 14.1824C18.5654 15.3386 17.8887 16.3442 17.0338 17.1995C16.179 18.0547 15.1737 18.7317 14.0181 19.2306C12.8625 19.7295 11.6277 19.979 10.3138 19.979ZM11.0621 18.4328C13.0839 18.2405 14.7977 17.3953 16.2035 15.8973C17.6092 14.3992 18.3121 12.5931 18.3121 10.479C18.3121 8.36488 17.6124 6.562 16.2131 5.07033C14.8137 3.57866 13.0967 2.73026 11.0621 2.52513V18.4328Z" fill="#00FFF0"/>
</svg>
