<svg width="23" height="17" viewBox="0 0 23 17" fill="none" xmlns="http://www.w3.org/2000/svg">
<path d="M10.6387 16.1503H5.57283C4.09889 16.1503 2.84166 15.6382 1.80113 14.6141C0.760613 13.59 0.240356 12.341 0.240356 10.867C0.240356 9.56263 0.658069 8.40247 1.49349 7.38656C2.32892 6.37066 3.39474 5.76974 4.69094 5.5838C5.03277 3.9895 5.83435 2.68577 7.09569 1.67259C8.35702 0.65942 9.80465 0.152832 11.4386 0.152832C13.3678 0.152832 15.0055 0.825892 16.3516 2.17201C17.6977 3.51811 18.3708 5.15579 18.3708 7.08506V7.61833H18.699C19.8229 7.70584 20.7602 8.15773 21.5108 8.97401C22.2615 9.7903 22.6368 10.7604 22.6368 11.8843C22.6368 13.0738 22.2232 14.0822 21.396 14.9095C20.5688 15.7367 19.5604 16.1503 18.3708 16.1503H12.2384V8.38123L14.2115 10.3215L15.3354 9.20779L11.4386 5.31101L7.54178 9.20779L8.66568 10.3215L10.6387 8.38123V16.1503Z" fill="#00FFF0"/>
</svg>
