<svg width="18" height="18" viewBox="0 0 18 18" fill="none" xmlns="http://www.w3.org/2000/svg">
<path d="M16.6004 17.8885C14.6438 17.8885 12.6782 17.4336 10.7035 16.5239C8.72892 15.6141 6.91303 14.3306 5.25587 12.6735C3.60537 11.0163 2.32523 9.20208 1.41545 7.2308C0.505671 5.2595 0.0507812 3.29554 0.0507812 1.3389C0.0507812 1.02743 0.154604 0.766213 0.362249 0.555246C0.569894 0.344262 0.82945 0.23877 1.14092 0.23877H4.52709C4.78931 0.23877 5.02058 0.324294 5.22091 0.495341C5.42123 0.666389 5.54867 0.877694 5.60323 1.12926L6.19821 4.184C6.23948 4.46752 6.23083 4.7111 6.17226 4.91475C6.1137 5.1184 6.00855 5.28944 5.85679 5.42787L3.45891 7.76188C3.84492 8.46867 4.28584 9.13719 4.78166 9.76744C5.27748 10.3977 5.81423 10.9997 6.39189 11.5734C6.9616 12.1431 7.56724 12.6722 8.20881 13.1607C8.85038 13.6492 9.5432 14.1037 10.2873 14.5243L12.6173 12.1744C12.7797 12.0053 12.9763 11.8869 13.2073 11.819C13.4382 11.7511 13.6781 11.7345 13.927 11.7691L16.8101 12.356C17.0723 12.4253 17.2863 12.559 17.452 12.7573C17.6177 12.9557 17.7006 13.1806 17.7006 13.4322V16.7984C17.7006 17.1099 17.5951 17.3694 17.3841 17.5771C17.1731 17.7847 16.9119 17.8885 16.6004 17.8885Z" fill="#00FFF0"/>
<circle cx="13.0421" cy="4.49997" r="3.31589" fill="#00FFF0"/>
</svg>
