<svg width="21" height="21" viewBox="0 0 21 21" fill="none" xmlns="http://www.w3.org/2000/svg">
<path d="M10.4073 20.7583C9.04068 20.7583 7.74902 20.4958 6.53235 19.9708C5.31568 19.4458 4.25318 18.7291 3.34485 17.8208C2.43652 16.9125 1.71985 15.85 1.19485 14.6333C0.669849 13.4166 0.407349 12.125 0.407349 10.7583C0.407349 9.37497 0.669849 8.07913 1.19485 6.8708C1.71985 5.66247 2.43652 4.60413 3.34485 3.6958C4.25318 2.78747 5.31568 2.0708 6.53235 1.5458C7.74902 1.0208 9.04068 0.758301 10.4073 0.758301C11.7907 0.758301 13.0865 1.0208 14.2948 1.5458C15.5032 2.0708 16.5615 2.78747 17.4698 3.6958C18.3782 4.60413 19.0948 5.66247 19.6198 6.8708C20.1448 8.07913 20.4073 9.37497 20.4073 10.7583C20.4073 12.125 20.1448 13.4166 19.6198 14.6333C19.0948 15.85 18.3782 16.9125 17.4698 17.8208C16.5615 18.7291 15.5032 19.4458 14.2948 19.9708C13.0865 20.4958 11.7907 20.7583 10.4073 20.7583ZM10.4073 18.7083C10.8407 18.1083 11.2157 17.4833 11.5323 16.8333C11.849 16.1833 12.1073 15.4916 12.3073 14.7583H8.50735C8.70735 15.4916 8.96568 16.1833 9.28235 16.8333C9.59902 17.4833 9.97402 18.1083 10.4073 18.7083ZM7.80735 18.3083C7.50735 17.7583 7.24485 17.1875 7.01985 16.5958C6.79485 16.0041 6.60735 15.3916 6.45735 14.7583H3.50735C3.99068 15.5916 4.59485 16.3166 5.31985 16.9333C6.04485 17.55 6.87402 18.0083 7.80735 18.3083ZM13.0073 18.3083C13.9407 18.0083 14.7698 17.55 15.4948 16.9333C16.2198 16.3166 16.824 15.5916 17.3073 14.7583H14.3573C14.2073 15.3916 14.0198 16.0041 13.7948 16.5958C13.5698 17.1875 13.3073 17.7583 13.0073 18.3083ZM2.65735 12.7583H6.05735C6.00735 12.425 5.96985 12.0958 5.94485 11.7708C5.91985 11.4458 5.90735 11.1083 5.90735 10.7583C5.90735 10.4083 5.91985 10.0708 5.94485 9.7458C5.96985 9.4208 6.00735 9.09163 6.05735 8.7583H2.65735C2.57402 9.09163 2.51152 9.4208 2.46985 9.7458C2.42818 10.0708 2.40735 10.4083 2.40735 10.7583C2.40735 11.1083 2.42818 11.4458 2.46985 11.7708C2.51152 12.0958 2.57402 12.425 2.65735 12.7583ZM8.05735 12.7583H12.7573C12.8073 12.425 12.8448 12.0958 12.8698 11.7708C12.8948 11.4458 12.9073 11.1083 12.9073 10.7583C12.9073 10.4083 12.8948 10.0708 12.8698 9.7458C12.8448 9.4208 12.8073 9.09163 12.7573 8.7583H8.05735C8.00735 9.09163 7.96985 9.4208 7.94485 9.7458C7.91985 10.0708 7.90735 10.4083 7.90735 10.7583C7.90735 11.1083 7.91985 11.4458 7.94485 11.7708C7.96985 12.0958 8.00735 12.425 8.05735 12.7583ZM14.7573 12.7583H18.1573C18.2407 12.425 18.3032 12.0958 18.3448 11.7708C18.3865 11.4458 18.4073 11.1083 18.4073 10.7583C18.4073 10.4083 18.3865 10.0708 18.3448 9.7458C18.3032 9.4208 18.2407 9.09163 18.1573 8.7583H14.7573C14.8073 9.09163 14.8448 9.4208 14.8698 9.7458C14.8948 10.0708 14.9073 10.4083 14.9073 10.7583C14.9073 11.1083 14.8948 11.4458 14.8698 11.7708C14.8448 12.0958 14.8073 12.425 14.7573 12.7583ZM14.3573 6.7583H17.3073C16.824 5.92497 16.2198 5.19997 15.4948 4.5833C14.7698 3.96663 13.9407 3.5083 13.0073 3.2083C13.3073 3.7583 13.5698 4.32913 13.7948 4.9208C14.0198 5.51247 14.2073 6.12497 14.3573 6.7583ZM8.50735 6.7583H12.3073C12.1073 6.02497 11.849 5.3333 11.5323 4.6833C11.2157 4.0333 10.8407 3.4083 10.4073 2.8083C9.97402 3.4083 9.59902 4.0333 9.28235 4.6833C8.96568 5.3333 8.70735 6.02497 8.50735 6.7583ZM3.50735 6.7583H6.45735C6.60735 6.12497 6.79485 5.51247 7.01985 4.9208C7.24485 4.32913 7.50735 3.7583 7.80735 3.2083C6.87402 3.5083 6.04485 3.96663 5.31985 4.5833C4.59485 5.19997 3.99068 5.92497 3.50735 6.7583Z" fill="#00FFF0"/>
</svg>
