<svg width="21" height="18" viewBox="0 0 21 18" fill="none" xmlns="http://www.w3.org/2000/svg">
<path d="M15.2486 17.4808L15.0431 16.2786C14.751 16.1946 14.4989 16.095 14.2869 15.98C14.0749 15.8649 13.8667 15.7111 13.6625 15.5185L12.5107 15.9141L11.7351 14.6459L12.6619 13.8509C12.5895 13.5717 12.5533 13.2886 12.5533 13.0016C12.5533 12.7146 12.5895 12.4315 12.6619 12.1523L11.7351 11.3573L12.5107 10.0892L13.6625 10.4847C13.8667 10.2857 14.0749 10.1302 14.2869 10.0184C14.4989 9.90658 14.751 9.80865 15.0431 9.72463L15.2486 8.52242H16.7611L16.9666 9.72463C17.2588 9.80865 17.5109 9.90658 17.7229 10.0184C17.9349 10.1302 18.143 10.2857 18.3472 10.4847L19.499 10.0892L20.2746 11.3573L19.3478 12.1523C19.4202 12.4315 19.4564 12.7146 19.4564 13.0016C19.4564 13.2886 19.4202 13.5717 19.3478 13.8509L20.2746 14.6459L19.499 15.9141L18.3472 15.5185C18.143 15.7111 17.9349 15.8649 17.7229 15.98C17.5109 16.095 17.2588 16.1946 16.9666 16.2786L16.7611 17.4808H15.2486ZM16.0049 15.0958C16.5788 15.0958 17.0713 14.8903 17.4824 14.4792C17.8935 14.0681 18.099 13.5756 18.099 13.0016C18.099 12.4277 17.8935 11.9351 17.4824 11.524C17.0713 11.113 16.5788 10.9074 16.0049 10.9074C15.4309 10.9074 14.9384 11.113 14.5273 11.524C14.1162 11.9351 13.9107 12.4277 13.9107 13.0016C13.9107 13.5756 14.1162 14.0681 14.5273 14.4792C14.9384 14.8903 15.4309 15.0958 16.0049 15.0958ZM2.34421 15.7648C1.83488 15.7648 1.40376 15.5883 1.05085 15.2354C0.697939 14.8825 0.521484 14.4514 0.521484 13.942V2.46286C0.521484 1.95353 0.697939 1.52241 1.05085 1.1695C1.40376 0.816591 1.83488 0.640137 2.34421 0.640137H7.88017L9.8968 2.65676H17.8566C18.366 2.65676 18.7971 2.83322 19.15 3.18613C19.5029 3.53903 19.6794 3.97016 19.6794 4.47949V7.28721C19.13 6.92526 18.5415 6.65121 17.9139 6.46506C17.2863 6.27891 16.6383 6.18583 15.97 6.18583C14.0387 6.18583 12.4241 6.85965 11.1262 8.20729C9.82832 9.55494 9.17938 11.1479 9.17938 12.9861C9.17938 13.4722 9.23012 13.9446 9.33159 14.4036C9.43308 14.8625 9.58529 15.3162 9.78823 15.7648H2.34421Z" fill="#00FFF0"/>
</svg>
