<svg width="16" height="21" viewBox="0 0 16 21" fill="none" xmlns="http://www.w3.org/2000/svg">
<path d="M7.54503 20.0516C7.04744 20.0516 6.62205 19.8746 6.26885 19.5206C5.91565 19.1666 5.73905 18.7411 5.73905 18.244H9.3544C9.3544 18.7427 9.17724 19.1686 8.8229 19.5218C8.46857 19.875 8.04261 20.0516 7.54503 20.0516ZM0.0467529 17.244V15.744H1.85445V8.28243C1.85445 6.93756 2.26951 5.74846 3.09963 4.71513C3.92976 3.68179 4.99547 3.0209 6.29675 2.73245V2.10938C6.29675 1.76216 6.41817 1.46703 6.661 1.22398C6.90384 0.980909 7.1987 0.859375 7.5456 0.859375C7.8925 0.859375 8.18774 0.980909 8.43133 1.22398C8.67491 1.46703 8.7967 1.76216 8.7967 2.10938V2.30935C8.56594 2.68115 8.38965 3.07986 8.26785 3.50548C8.14605 3.93108 8.08515 4.36635 8.08515 4.8113C8.08515 6.169 8.56144 7.32894 9.514 8.2911C10.4666 9.25329 11.6185 9.74078 12.9698 9.7536H13.1044C13.1493 9.7536 13.1941 9.7504 13.239 9.744V15.744H15.0467V17.244H0.0467529ZM13.0286 7.5613C12.265 7.5613 11.6156 7.29405 11.0804 6.75955C10.5451 6.22505 10.2775 5.57601 10.2775 4.81243C10.2775 4.04886 10.5447 3.39945 11.0792 2.8642C11.6137 2.32895 12.2628 2.06133 13.0263 2.06133C13.7899 2.06133 14.4393 2.32858 14.9746 2.86308C15.5098 3.39758 15.7775 4.04661 15.7775 4.81018C15.7775 5.57374 15.5102 6.22315 14.9757 6.7584C14.4412 7.29367 13.7922 7.5613 13.0286 7.5613Z" fill="#00FFF0"/>
</svg>
