<svg width="11" height="22" viewBox="0 0 11 22" fill="none" xmlns="http://www.w3.org/2000/svg">
<path d="M5.54675 8.22197C6.21981 8.22197 6.79191 7.9864 7.26305 7.51527C7.7342 7.04412 7.96977 6.47201 7.96977 5.79894C7.96977 5.12588 7.7342 4.55377 7.26305 4.08262C6.79191 3.61149 6.21981 3.37592 5.54675 3.37592C4.87368 3.37592 4.30157 3.61149 3.83042 4.08262C3.35927 4.55377 3.1237 5.12588 3.1237 5.79894C3.1237 6.47201 3.35927 7.04412 3.83042 7.51527C4.30157 7.9864 4.87368 8.22197 5.54675 8.22197ZM5.5775 21.3374L2.22947 18.0393L3.92177 16.1836L2.20062 14.2701L3.79675 12.4913V10.8912C2.75061 10.513 1.88652 9.86975 1.20447 8.96142C0.522422 8.0531 0.181396 6.99894 0.181396 5.79894C0.181396 4.29896 0.700622 3.02974 1.73907 1.99129C2.77752 0.952827 4.04675 0.433594 5.54675 0.433594C7.04673 0.433594 8.31595 0.952827 9.3544 1.99129C10.3928 3.02974 10.9121 4.29896 10.9121 5.79894C10.9121 7.03996 10.5608 8.10694 9.85825 8.99987C9.15568 9.89282 8.30184 10.5233 7.29672 10.8912V19.5874L5.5775 21.3374Z" fill="#00FFF0"/>
</svg>
