<svg width="16" height="20" viewBox="0 0 16 20" fill="none" xmlns="http://www.w3.org/2000/svg">
<path d="M6.28713 12.5806H8.80633L8.24095 9.42294C8.55505 9.28832 8.80794 9.07711 8.9996 8.78929C9.19127 8.50147 9.2871 8.18192 9.2871 7.83064C9.2871 7.35116 9.11691 6.94122 8.77653 6.60084C8.43614 6.26046 8.02621 6.09027 7.54673 6.09027C7.06724 6.09027 6.65731 6.26046 6.31693 6.60084C5.97654 6.94122 5.80635 7.35116 5.80635 7.83064C5.80635 8.18192 5.90219 8.50147 6.09385 8.78929C6.28552 9.07711 6.5384 9.28832 6.8525 9.42294L6.28713 12.5806ZM7.54673 19.3114C5.38391 18.7216 3.59321 17.4486 2.17463 15.4922C0.756045 13.5357 0.0467529 11.3486 0.0467529 8.93064V3.17682L7.54673 0.369141L15.0467 3.17682V8.93064C15.0467 11.3486 14.3374 13.5357 12.9188 15.4922C11.5002 17.4486 9.70954 18.7216 7.54673 19.3114Z" fill="#00FFF0"/>
</svg>
