<svg width="20" height="20" viewBox="0 0 20 20" fill="none" xmlns="http://www.w3.org/2000/svg">
<path d="M14.8413 6.26835C14.5962 6.26835 14.3906 6.18545 14.2246 6.01965C14.0585 5.85385 13.9755 5.64841 13.9755 5.40332C13.9755 5.15822 14.0584 4.95267 14.2242 4.78665C14.39 4.62062 14.5955 4.5376 14.8406 4.5376C15.0857 4.5376 15.2912 4.6205 15.4573 4.7863C15.6233 4.9521 15.7063 5.15755 15.7063 5.40265C15.7063 5.64773 15.6234 5.85329 15.4576 6.01932C15.2918 6.18534 15.0863 6.26835 14.8413 6.26835ZM7.13901 12.0087L9.43513 9.02797L11.0044 10.9703L13.3813 7.93182L16.4851 12.0087H7.13901ZM2.62131 19.1625C2.11519 19.1625 1.68713 18.9875 1.33713 18.6375C0.987134 18.2875 0.812134 17.8594 0.812134 17.3533V4.4703H2.31211V17.3548C2.31211 17.4318 2.34416 17.5023 2.40826 17.5664C2.47238 17.6305 2.54289 17.6625 2.61981 17.6625H15.5044V19.1625H2.62131ZM4.31211 7.44142V2.4749C4.31211 1.9667 4.48711 1.5376 4.83711 1.1876C5.18709 0.837598 5.61484 0.662598 6.12036 0.662598H10.7159V2.16257H6.11978C6.04285 2.16257 5.97233 2.19462 5.90823 2.25872C5.84412 2.32284 5.81206 2.39337 5.81206 2.4703V7.44142H4.31211ZM6.12036 15.6625C5.61484 15.6625 5.18709 15.4875 4.83711 15.1375C4.48711 14.7875 4.31211 14.3613 4.31211 13.8589V9.63372H5.81206V13.8548C5.81206 13.9318 5.84412 14.0023 5.90823 14.0664C5.97233 14.1305 6.04285 14.1626 6.11978 14.1626H10.7159V15.6625H6.12036ZM12.9082 15.6625V14.1626H17.5044C17.5813 14.1626 17.6518 14.1305 17.7159 14.0664C17.78 14.0023 17.8121 13.9318 17.8121 13.8548V9.63372H19.312V13.8589C19.312 14.3613 19.137 14.7875 18.787 15.1375C18.437 15.4875 18.0093 15.6625 17.5038 15.6625H12.9082ZM17.8121 7.44142V2.4703C17.8121 2.39337 17.78 2.32284 17.7159 2.25872C17.6518 2.19462 17.5813 2.16257 17.5044 2.16257H12.9082V0.662598H17.5038C18.0093 0.662598 18.437 0.837598 18.787 1.1876C19.137 1.5376 19.312 1.9667 19.312 2.4749V7.44142H17.8121Z" fill="#00FFF0"/>
</svg>
