<svg width="19" height="25" viewBox="0 0 19 25" fill="none" xmlns="http://www.w3.org/2000/svg">
<path fill-rule="evenodd" clip-rule="evenodd" d="M2.16609 0.485357C2.52266 0.485357 2.84494 0.631071 3.07809 0.865928L17.8381 8.24593C17.9803 8.31719 18.0998 8.42661 18.1834 8.56194C18.2669 8.69726 18.3112 8.85317 18.3112 9.01221C18.3112 9.17126 18.2669 9.32716 18.1834 9.46249C18.0998 9.59782 17.9803 9.70724 17.8381 9.7785L3.4518 16.9716V23.0488C3.4518 23.3898 3.31634 23.7168 3.07522 23.9579C2.8341 24.199 2.50708 24.3345 2.16609 24.3345C1.82509 24.3345 1.49807 24.199 1.25695 23.9579C1.01583 23.7168 0.880371 23.3898 0.880371 23.0488V1.76936C0.880371 1.42836 1.01583 1.10134 1.25695 0.86022C1.49807 0.619101 1.82509 0.483643 2.16609 0.483643V0.485357Z" fill="#00FFF0"/>
</svg>
