<svg width="96" height="97" viewBox="0 0 96 97" fill="none" xmlns="http://www.w3.org/2000/svg">
<path d="M29.9418 72.1345L47.9999 53.9962L66.058 72.1345L71.3441 66.8249L53.286 48.6865L71.3441 30.5482L66.058 25.2385L47.9999 43.3769L29.9418 25.2385L24.6556 30.5482L42.7137 48.6865L24.6556 66.8249L29.9418 72.1345ZM48.0083 96.5515C41.4174 96.5515 35.2223 95.2953 29.423 92.7828C23.6236 90.2703 18.5789 86.8605 14.289 82.5535C9.99907 78.2464 6.60285 73.1816 4.10038 67.359C1.59791 61.5365 0.34668 55.3151 0.34668 48.695C0.34668 42.0748 1.59737 35.8522 4.09875 30.0271C6.60013 24.2019 9.9948 19.1348 14.2828 14.8259C18.5708 10.5168 23.6132 7.10552 29.4101 4.59193C35.2068 2.07833 41.4006 0.821533 47.9915 0.821533C54.5823 0.821533 60.7774 2.07779 66.5768 4.59029C72.3762 7.10279 77.4208 10.5125 81.7107 14.8196C86.0006 19.1267 89.3969 24.1915 91.8993 30.0141C94.4018 35.8366 95.653 42.0579 95.653 48.6781C95.653 55.2983 94.4023 61.5209 91.901 67.346C89.3996 73.1712 86.0049 78.2383 81.717 82.5472C77.4289 86.8562 72.3865 90.2676 66.5897 92.7812C60.7929 95.2947 54.5991 96.5515 48.0083 96.5515ZM47.9999 88.994C59.2026 88.994 68.6914 85.0892 76.4664 77.2797C84.2415 69.4701 88.129 59.939 88.129 48.6865C88.129 37.434 84.2415 27.903 76.4664 20.0934C68.6914 12.2838 59.2026 8.37906 47.9999 8.37906C36.7971 8.37906 27.3083 12.2838 19.5333 20.0934C11.7583 27.903 7.87076 37.434 7.87076 48.6865C7.87076 59.939 11.7583 69.4701 19.5333 77.2797C27.3083 85.0892 36.7971 88.994 47.9999 88.994Z" fill="white"/>
</svg>
