<svg width="366" height="644" viewBox="0 0 366 644" fill="none" xmlns="http://www.w3.org/2000/svg">
<g opacity="0.1" filter="url(#filter0_f_946_107)">
<path d="M363.29 -59.873H240.311C221.71 -35.1863 205.693 -5.2113 192.075 29.6777C156.096 121.639 136.675 247.646 130.253 400.47C129.897 408.847 121.974 409.736 120.813 401.523L55.3848 -59.873H-39.7399L68.585 704.198H191.565C210.15 679.535 226.167 649.56 239.8 614.671C275.779 522.733 295.216 396.702 301.638 243.879C301.994 235.502 309.917 234.612 311.078 242.826L334.693 409.362H310.629C306.389 454.546 299.162 502.727 284.151 553.2H355.089L376.491 704.198H471.615L363.29 -59.873ZM215.938 407.981C184.601 407.981 159.191 369.559 159.191 322.151C159.191 274.743 184.601 236.344 215.938 236.344C247.275 236.344 272.7 274.766 272.7 322.151C272.7 369.535 247.29 407.981 215.938 407.981Z" fill="#00FFF0"/>
<path d="M215.938 373.396C234.655 373.396 249.828 350.453 249.828 322.151C249.828 293.849 234.655 270.905 215.938 270.905C197.221 270.905 182.048 293.849 182.048 322.151C182.048 350.453 197.221 373.396 215.938 373.396Z" fill="#00FFF0"/>
</g>
<defs>
<filter id="filter0_f_946_107" x="-98.7399" y="-118.873" width="629.355" height="882.071" filterUnits="userSpaceOnUse" color-interpolation-filters="sRGB">
<feFlood flood-opacity="0" result="BackgroundImageFix"/>
<feBlend mode="normal" in="SourceGraphic" in2="BackgroundImageFix" result="shape"/>
<feGaussianBlur stdDeviation="29.5" result="effect1_foregroundBlur_946_107"/>
</filter>
</defs>
</svg>
