<svg width="86" height="86" viewBox="0 0 86 86" fill="none" xmlns="http://www.w3.org/2000/svg">
<path d="M80.539 85.0306L55.9356 60.4272C49.1913 66.121 42.0509 70.5365 34.5142 73.6736C26.9777 76.8107 19.3788 78.3792 11.7174 78.3792C10.0807 78.3792 8.872 77.9265 8.09136 77.0211C7.31065 76.1157 6.92029 74.9839 6.92029 73.6257V58.9475C6.92029 57.775 7.2816 56.7636 8.00421 55.9133C8.72683 55.063 9.65984 54.5101 10.8033 54.2548L23.3747 51.6953C24.3208 51.5153 25.3365 51.5922 26.4218 51.9259C27.5072 52.2596 28.3952 52.7719 29.0859 53.4626L39.2459 63.7096C41.1265 62.6474 43.1564 61.3633 45.3359 59.8571C47.5154 58.3509 49.412 56.9042 51.0255 55.517L0.72168 5.21324L5.49253 0.442383L85.3099 80.2597L80.539 85.0306ZM32.7774 66.783L24.7851 58.7037C24.64 58.5585 24.5022 58.4641 24.3715 58.4206C24.2409 58.3771 24.0886 58.3844 23.9145 58.4425L14.4075 60.4448C14.1753 60.5028 14.0012 60.6044 13.8851 60.7495C13.769 60.8947 13.7109 61.0833 13.7109 61.3155V70.8399C13.7109 71.0141 13.769 71.1592 13.8851 71.2753C14.0012 71.3914 14.1463 71.4494 14.3204 71.4494C17.1528 71.3101 20.1869 70.8472 23.4227 70.0608C26.6585 69.2743 29.7767 68.1817 32.7774 66.783ZM66.9575 49.0484L62.1866 44.2777C63.3764 42.8789 64.6069 41.2406 65.878 39.363C67.1491 37.4853 68.1968 35.7717 69.021 34.222L58.565 24.0446C57.8743 23.383 57.4085 22.5269 57.1676 21.4763C56.9267 20.4258 56.8963 19.4739 57.0762 18.6207L59.6706 5.3005C59.926 4.15709 60.4788 3.22407 61.3291 2.50146C62.1794 1.77884 63.1908 1.41754 64.3632 1.41754H79.1286C80.4867 1.41754 81.6185 1.87754 82.524 2.79754C83.4294 3.71746 83.8821 4.8565 83.8821 6.21465C83.8821 13.7309 82.3556 21.1775 79.3026 28.5544C76.2497 35.9313 72.1347 42.7627 66.9575 49.0484ZM72.1637 27.7971C73.5626 24.6222 74.6523 21.4387 75.4329 18.2464C76.2136 15.0542 76.72 11.9112 76.9521 8.81766C76.9521 8.64352 76.8941 8.49842 76.7781 8.38238C76.6619 8.26625 76.5168 8.20819 76.3427 8.20819H66.7311C66.499 8.20819 66.3103 8.26625 66.1652 8.38238C66.0201 8.49842 65.9186 8.67254 65.8605 8.9047L63.8233 19.0212C63.7652 19.1953 63.7579 19.3767 63.8015 19.5654C63.845 19.7541 63.9393 19.9209 64.0844 20.066L72.1637 27.7971Z" fill="white"/>
</svg>
