<svg width="88" height="86" viewBox="0 0 88 86" fill="none" xmlns="http://www.w3.org/2000/svg">
<path fill-rule="evenodd" clip-rule="evenodd" d="M48.2554 0H69.1787L87.6086 86H71.4245L67.7833 69.0044H55.7143C58.2681 63.3234 59.4977 57.9005 60.2191 52.8147H64.3132L60.2954 34.0703C60.098 33.1458 58.7499 33.2459 58.6894 34.1888C57.5968 51.3898 54.2899 65.5752 48.1685 75.9232C45.849 79.8502 43.124 83.224 39.9619 86H19.0386L0.608643 0H16.7928L27.9245 51.9324C28.122 52.8568 29.47 52.7567 29.5305 51.8139C30.6232 34.6128 33.9274 20.43 40.0488 10.0794C42.3657 6.15245 45.0907 2.77861 48.2554 0ZM34.454 42.9987C34.454 48.3347 38.7771 52.6593 44.1086 52.6593C49.4428 52.6593 53.7659 48.332 53.7659 42.9987C53.7659 37.6653 49.4402 33.3407 44.1086 33.3407C38.7771 33.3407 34.454 37.6627 34.454 42.9987Z" fill="white"/>
</svg>
