<svg width="53" height="36" viewBox="0 0 53 36" fill="none" xmlns="http://www.w3.org/2000/svg">
<path d="M26.3472 28.0428C29.1376 28.0428 31.5076 27.0662 33.4572 25.1129C35.4068 23.1595 36.3816 20.7876 36.3816 17.9972C36.3816 15.2068 35.405 12.8368 33.4516 10.8871C31.4983 8.93754 29.1264 7.96273 26.3359 7.96273C23.5455 7.96273 21.1755 8.93938 19.2259 10.8927C17.2763 12.846 16.3015 15.2179 16.3015 18.0084C16.3015 20.7988 17.2782 23.1688 19.2315 25.1184C21.1848 27.068 23.5567 28.0428 26.3472 28.0428ZM26.3416 24.652C24.4946 24.652 22.9246 24.0055 21.6317 22.7126C20.3388 21.4197 19.6923 19.8498 19.6923 18.0028C19.6923 16.1558 20.3388 14.5858 21.6317 13.2929C22.9246 12 24.4946 11.3536 26.3416 11.3536C28.1886 11.3536 29.7585 12 31.0514 13.2929C32.3443 14.5858 32.9908 16.1558 32.9908 18.0028C32.9908 19.8498 32.3443 21.4197 31.0514 22.7126C29.7585 24.0055 28.1886 24.652 26.3416 24.652ZM26.3449 35.2414C20.6817 35.2414 15.5216 33.6794 10.8647 30.5553C6.20771 27.4312 2.77894 23.247 0.578339 18.0028C2.77894 12.7586 6.2066 8.57441 10.8613 5.45031C15.516 2.32621 20.675 0.76416 26.3382 0.76416C32.0014 0.76416 37.1615 2.32621 41.8184 5.45031C46.4754 8.57441 49.9042 12.7586 52.1048 18.0028C49.9042 23.247 46.4765 27.4312 41.8218 30.5553C37.1671 33.6794 32.0081 35.2414 26.3449 35.2414Z" fill="white"/>
</svg>
