<svg width="52" height="56" viewBox="0 0 52 56" fill="none" xmlns="http://www.w3.org/2000/svg">
<path d="M0.484589 55.5973V51.5514H51.7327V55.5973H0.484589ZM5.87914 48.5429V34.123C4.36107 31.3669 3.20176 28.5944 2.40121 25.8055C1.6007 23.0166 1.20045 20.2752 1.20045 17.5814C1.20045 15.1504 1.50994 12.6996 2.12892 10.2288C2.7479 7.75801 3.57263 5.12904 4.60313 2.34186C4.85901 1.63989 5.27915 1.07279 5.86356 0.640553C6.44797 0.20827 7.11364 -0.00787354 7.86056 -0.00787354C8.85644 -0.00787354 9.7019 0.347451 10.3969 1.05809C11.092 1.76869 11.3755 2.60291 11.2476 3.56076L10.5318 9.41176C10.2621 11.6733 10.5007 13.8571 11.2476 15.963C11.9946 18.069 13.0934 19.9347 14.544 21.5599C15.9947 23.1852 17.7194 24.4924 19.7181 25.4814C21.7169 26.4704 23.8471 26.9649 26.1086 26.9649C28.8578 26.9649 31.4842 27.2026 33.9878 27.6781C36.4914 28.1536 38.6509 28.8392 40.4664 29.7348C42.3337 30.665 43.7792 31.8546 44.8027 33.3035C45.8263 34.7524 46.3381 36.5505 46.3381 38.698V48.5429H20.0916V46.7483C20.0916 45.0987 20.6605 43.6887 21.7981 42.5182C22.9358 41.3476 24.3381 40.7623 26.0049 40.7623H35.964V36.7165H26.0049C23.235 36.7165 20.8827 37.696 18.9479 39.655C17.0132 41.6139 16.0458 43.9784 16.0458 46.7483V48.5429H5.87914ZM26.1086 23.6451C23.5048 23.6451 21.2804 22.7227 19.4355 20.8779C17.5907 19.033 16.6682 16.8087 16.6682 14.2047C16.6682 11.6009 17.5907 9.37653 19.4355 7.53169C21.2804 5.68684 23.5048 4.76442 26.1086 4.76442C28.7125 4.76442 30.9369 5.68684 32.7818 7.53169C34.6266 9.37653 35.549 11.6009 35.549 14.2047C35.549 16.8087 34.6266 19.033 32.7818 20.8779C30.9369 22.7227 28.7125 23.6451 26.1086 23.6451Z" fill="white"/>
</svg>
